<svg width="51" height="46" viewBox="0 0 51 46" fill="none" xmlns="http://www.w3.org/2000/svg">
<path d="M18.4613 0.625C21.5375 0.625 24.0863 3.17383 24.0863 6.25V39.2969C24.0863 42.8125 21.1859 45.625 17.7582 45.625C14.9457 45.625 12.5726 43.8672 11.7816 41.3184C11.43 41.4062 11.0785 41.4062 10.7269 41.4062C7.2113 41.4062 4.3988 38.5938 4.3988 35.0781C4.3988 34.7266 4.3988 34.2871 4.48669 33.8477C1.93786 32.793 0.180048 30.332 0.180048 27.3438C0.180048 24.7949 1.5863 22.5098 3.69567 21.2793C3.25622 20.4004 2.99255 19.3457 2.99255 18.2031C2.99255 15.3027 4.75036 12.7539 7.29919 11.6992C7.2113 11.3477 7.2113 10.9082 7.2113 10.4688C7.2113 7.39258 9.67224 4.84375 12.8363 4.84375C12.8363 4.84375 12.9242 4.93164 13.0121 4.93164C13.6273 2.4707 15.8246 0.625 18.4613 0.625ZM50.805 27.3438C50.805 30.332 48.9593 32.793 46.4105 33.8477C46.4984 34.2871 46.5863 34.7266 46.5863 35.0781C46.5863 38.5938 43.6859 41.4062 40.2582 41.4062C39.8187 41.4062 39.4672 41.4062 39.2035 41.3184C38.3246 43.8672 35.9515 45.625 33.2269 45.625C29.7113 45.625 26.8988 42.8125 26.8988 39.2969V6.25C26.8988 3.17383 29.3597 0.625 32.5238 0.625C35.0726 0.625 37.2699 2.4707 37.8851 4.93164C37.973 4.93164 38.0609 4.84375 38.1488 4.84375C41.225 4.84375 43.7738 7.39258 43.7738 10.4688C43.7738 10.9082 43.6859 11.3477 43.598 11.6992C46.1468 12.7539 47.9925 15.3027 47.9925 18.2031C47.9925 19.3457 47.641 20.4004 47.2015 21.2793C49.3109 22.5098 50.805 24.7949 50.805 27.3438Z" fill="#0C6460"/>
</svg>
