<svg width="51" height="61" viewBox="0 0 51 61" fill="none" xmlns="http://www.w3.org/2000/svg">
<path d="M25.4073 22.3302C25.2117 22.3302 25.0193 22.3502 24.8268 22.3902C24.6358 22.4287 24.4495 22.4857 24.2693 22.5612C24.0891 22.6366 23.9182 22.729 23.755 22.8383C23.5933 22.9477 23.4439 23.0724 23.3053 23.211C23.1683 23.3496 23.0451 23.5005 22.9373 23.6637C22.8295 23.8254 22.7386 23.9979 22.6647 24.1781C22.5908 24.3583 22.5338 24.5446 22.4968 24.7371C22.4599 24.928 22.4414 25.1221 22.4414 25.3161C22.4429 25.5117 22.463 25.7057 22.5015 25.8967C22.54 26.0876 22.5969 26.2739 22.6724 26.4541C22.7479 26.6343 22.8402 26.8052 22.9496 26.9669C23.0589 27.1286 23.1821 27.278 23.3207 27.4166C23.4593 27.5536 23.6102 27.6768 23.7734 27.7846C23.9367 27.8924 24.1076 27.9848 24.2893 28.0587C24.4695 28.1326 24.6558 28.1881 24.8483 28.2266C25.0408 28.2635 25.2333 28.282 25.4289 28.282C25.6244 28.282 25.8185 28.262 26.011 28.225C26.2019 28.1865 26.3883 28.1296 26.5684 28.0541C26.7501 27.9786 26.9211 27.8878 27.0843 27.7785C27.246 27.6707 27.3969 27.5475 27.534 27.4089C27.6726 27.2703 27.7958 27.1209 27.9051 26.9577C28.0129 26.796 28.1053 26.6235 28.1792 26.4433C28.2547 26.2632 28.3101 26.0768 28.3486 25.8859C28.3871 25.6949 28.4056 25.5009 28.4056 25.3053C28.4056 25.1097 28.3871 24.9157 28.3486 24.7232C28.3101 24.5307 28.2531 24.3444 28.1777 24.1627C28.1022 23.9825 28.0098 23.81 27.9005 23.6468C27.7911 23.4836 27.6664 23.3342 27.5263 23.1956C27.3877 23.057 27.2368 22.9338 27.072 22.826C26.9088 22.7167 26.7363 22.6258 26.5546 22.5519C26.3713 22.4765 26.185 22.421 25.9925 22.3841C25.7985 22.3471 25.6044 22.3286 25.4073 22.3302ZM25.4073 26.6435C25.2287 26.6404 25.0578 26.605 24.8945 26.5342C24.7297 26.4649 24.585 26.3663 24.4603 26.2385C24.3355 26.1107 24.24 25.9644 24.1738 25.7996C24.1061 25.6349 24.0737 25.4624 24.0768 25.2838C24.0784 25.1067 24.1138 24.9357 24.1831 24.771C24.2539 24.6077 24.3525 24.463 24.4803 24.3382C24.6066 24.2135 24.7528 24.1165 24.9192 24.0503C25.0839 23.9841 25.2564 23.9517 25.435 23.9517C25.6137 23.9533 25.7846 23.9887 25.9494 24.058C26.1141 24.1288 26.2589 24.2258 26.3836 24.3536C26.5099 24.4799 26.6054 24.6262 26.6731 24.791C26.7394 24.9558 26.7732 25.1282 26.7717 25.3053C26.7717 25.4855 26.7378 25.658 26.6685 25.8243C26.5992 25.9906 26.4991 26.1369 26.3713 26.2632C26.2435 26.3894 26.0957 26.4864 25.9294 26.5542C25.7615 26.6204 25.5875 26.6543 25.4073 26.6512V26.6435Z" fill="#0C6460"/>
<path d="M40.5258 25.3059C40.5258 24.8131 40.5011 24.3188 40.4534 23.8276C40.4041 23.3363 40.3317 22.8482 40.2347 22.3631C40.1392 21.878 40.0191 21.4006 39.8744 20.9279C39.7312 20.4551 39.5648 19.99 39.3754 19.5327C39.186 19.0769 38.9751 18.6303 38.741 18.1945C38.5085 17.7587 38.2544 17.3352 37.9787 16.9256C37.7031 16.5144 37.4089 16.1171 37.0948 15.7352C36.7806 15.3533 36.4496 14.9883 36.0985 14.6388C35.7489 14.2892 35.3824 13.9581 35.0005 13.644C34.617 13.3314 34.2197 13.0372 33.8086 12.7631C33.3974 12.4875 32.9724 12.2349 32.5366 12.0009C32.0993 11.7683 31.6527 11.5574 31.1953 11.368C30.738 11.1801 30.2729 11.0138 29.7986 10.869C29.3258 10.7258 28.8454 10.6057 28.3603 10.5102C27.8752 10.4132 27.3855 10.3408 26.8927 10.2931C26.4 10.2438 25.9072 10.2207 25.4113 10.2207C24.917 10.2207 24.4227 10.2438 23.9299 10.2931C23.4371 10.3408 22.949 10.4132 22.4623 10.5102C21.9773 10.6057 21.4984 10.7258 21.0241 10.869C20.5513 11.0138 20.0847 11.1801 19.6273 11.368C19.17 11.5574 18.7234 11.7683 18.2876 12.0009C17.8502 12.2349 17.4268 12.4875 17.0141 12.7631C16.6029 13.0372 16.2056 13.3314 15.8237 13.644C15.4403 13.9581 15.0737 14.2892 14.7242 14.6388C14.3746 14.9883 14.042 15.3533 13.7278 15.7352C13.4137 16.1171 13.1196 16.5144 12.8455 16.9256C12.5698 17.3352 12.3157 17.7587 12.0817 18.1945C11.8491 18.6303 11.6382 19.0769 11.4487 19.5327C11.2593 19.99 11.0915 20.4551 10.9483 20.9279C10.8051 21.4006 10.6849 21.878 10.5879 22.3631C10.4909 22.8482 10.4185 23.3363 10.3708 23.8276C10.3215 24.3188 10.2969 24.8131 10.2969 25.3059C10.2969 29.7347 12.79 34.1466 14.9875 38.0365C16.2703 40.1 17.3251 42.2744 18.149 44.5597H17.6593C17.55 44.5643 17.4468 44.5874 17.3482 44.6336C17.2497 44.6783 17.1634 44.7398 17.0895 44.8184C17.0156 44.8985 16.9586 44.9878 16.9217 45.0894C16.8832 45.1911 16.8662 45.2958 16.8709 45.4036C16.8739 45.5114 16.8986 45.6161 16.9432 45.7146C16.9879 45.8116 17.051 45.8979 17.1296 45.9718C17.2096 46.0457 17.299 46.1012 17.4006 46.1396C17.5022 46.1781 17.6069 46.1951 17.7163 46.1905H17.7733L18.4354 46.1427C18.4354 46.2474 18.4354 46.3614 18.4354 46.4677V46.9574L17.8056 47.0066C17.6978 47.0097 17.5946 47.0344 17.4961 47.079C17.3975 47.1252 17.3113 47.1868 17.2374 47.2653C17.1634 47.3454 17.1065 47.4347 17.0695 47.5364C17.031 47.638 17.0141 47.7427 17.0171 47.8505C17.0218 47.9583 17.0464 48.0615 17.0911 48.16C17.1357 48.2586 17.1973 48.3448 17.2774 48.4188C17.3559 48.4927 17.4468 48.5481 17.5484 48.5866C17.6501 48.6236 17.7548 48.6405 17.8626 48.6374H18.4354V49.4536H17.9858C17.8764 49.4567 17.7733 49.4813 17.6747 49.526C17.5761 49.5706 17.4899 49.6322 17.416 49.7123C17.3421 49.7908 17.2866 49.8817 17.2481 49.9833C17.2112 50.0834 17.1942 50.1881 17.1973 50.2975C17.2019 50.4053 17.225 50.5084 17.2712 50.607C17.3159 50.7056 17.3775 50.7918 17.4576 50.8642C17.5361 50.9381 17.627 50.9951 17.7286 51.032C17.8287 51.0705 17.9349 51.0875 18.0427 51.0844H18.4354V51.899H18.1567C18.0489 51.9036 17.9457 51.9283 17.8472 51.9729C17.7486 52.0176 17.6624 52.0792 17.5885 52.1592C17.5145 52.2378 17.4591 52.3286 17.4206 52.4287C17.3836 52.5304 17.3667 52.6351 17.3698 52.7429C17.3744 52.8507 17.399 52.9539 17.4437 53.0524C17.4884 53.151 17.55 53.2372 17.6285 53.3111C17.7086 53.385 17.7979 53.4405 17.8995 53.479C18.0012 53.5159 18.1059 53.5344 18.2137 53.5298H18.4262V54.0364C18.7526 56.0984 20.3711 57.395 22.3315 58.0233C22.43 58.3575 22.5763 58.6685 22.7734 58.955C22.9705 59.2429 23.2077 59.4909 23.4849 59.7034C23.7621 59.9144 24.0654 60.0776 24.395 60.1915C24.7245 60.3055 25.0633 60.3656 25.4113 60.3717C25.7547 60.3609 26.0874 60.2963 26.4107 60.1792C26.7341 60.0622 27.0313 59.899 27.3024 59.6895C27.5734 59.4801 27.8059 59.2322 27.9999 58.9504C28.1924 58.667 28.3372 58.3606 28.4342 58.031C28.83 57.9294 29.2088 57.7862 29.5707 57.6014C29.9341 57.415 30.2729 57.1917 30.5855 56.933C30.8996 56.6728 31.1799 56.3817 31.4294 56.0584C31.6789 55.7365 31.8898 55.3916 32.0623 55.022L33.1479 54.9404C33.2557 54.9327 33.3589 54.9034 33.4544 54.8557C33.5514 54.8064 33.6346 54.7417 33.7054 54.6601C33.7747 54.5785 33.8271 54.4861 33.8609 54.3829C33.8948 54.2813 33.9087 54.1766 33.8994 54.0688C33.8933 53.9594 33.8656 53.8578 33.8163 53.7608C33.7685 53.6638 33.7023 53.5791 33.6207 53.5082C33.5391 53.4374 33.4467 53.3835 33.3435 53.3496C33.2403 53.3157 33.1341 53.3019 33.0263 53.3096L32.3318 53.3589V52.5442L32.9693 52.495C33.0771 52.4857 33.1787 52.458 33.2742 52.4087C33.3712 52.3594 33.4544 52.2948 33.5252 52.2131C33.5961 52.1315 33.6484 52.0391 33.6808 51.9375C33.7146 51.8343 33.7285 51.7296 33.7208 51.6218C33.7131 51.514 33.6854 51.4108 33.6361 51.3138C33.5884 51.2168 33.5237 51.1321 33.4405 51.0613C33.3589 50.9904 33.2665 50.9381 33.1633 50.9027C33.0602 50.8688 32.9539 50.8565 32.8461 50.8642H32.3318V50.048H32.7891C32.9 50.0449 33.0047 50.0203 33.1064 49.9741C33.2065 49.9279 33.2942 49.8647 33.3682 49.7831C33.4436 49.7015 33.4991 49.6091 33.536 49.5044C33.573 49.4012 33.5884 49.2934 33.5822 49.1841C33.5745 49.0748 33.5468 48.9731 33.4975 48.8761C33.4498 48.7791 33.3851 48.6944 33.3019 48.6236C33.2203 48.5527 33.1279 48.4988 33.0248 48.4649C32.9216 48.4311 32.8153 48.4172 32.7075 48.4249H32.3718V47.6103H32.6413C32.7491 47.601 32.8523 47.5733 32.9478 47.524C33.0448 47.4748 33.1279 47.4101 33.1988 47.3285C33.2681 47.2469 33.3204 47.1545 33.3543 47.0528C33.3882 46.9497 33.402 46.8449 33.3943 46.7371C33.3866 46.6293 33.3589 46.5262 33.3096 46.4292C33.2619 46.3321 33.1972 46.2474 33.1141 46.1766C33.0325 46.1058 32.9401 46.0534 32.8369 46.018C32.7337 45.9841 32.6274 45.9718 32.5197 45.9795H32.4134C32.6336 43.6711 34.2598 40.6698 35.9999 37.5068C38.2143 33.4614 40.5258 29.2373 40.5258 25.3059ZM25.4113 58.7409C25.1049 58.7425 24.8338 58.647 24.5952 58.456C24.8554 58.456 25.1172 58.456 25.4113 58.456C25.6808 58.456 25.9426 58.456 26.229 58.456C25.9903 58.647 25.7178 58.7425 25.4113 58.7409ZM29.9048 53.5467L25.7054 53.8486C25.5977 53.8516 25.4945 53.8763 25.3959 53.9209C25.2974 53.9656 25.2111 54.0287 25.1372 54.1073C25.0633 54.1858 25.0063 54.2767 24.9694 54.3783C24.9309 54.4799 24.9139 54.5846 24.917 54.6924C24.9216 54.8002 24.9463 54.9034 24.9909 55.002C25.0356 55.1005 25.0972 55.1868 25.1773 55.2607C25.2558 55.3346 25.3466 55.39 25.4483 55.4285C25.5499 55.4655 25.6546 55.4824 25.7624 55.4793H25.8209L28.6791 55.2591C27.6581 55.7981 26.5678 56.0568 25.4113 56.0337C23.4587 56.0337 21.2535 55.3084 20.9347 53.7346V53.3666L29.9218 52.7152L29.9048 53.5467ZM29.9048 51.0998L20.9178 51.7527V50.9365L29.9048 50.2851V51.0998ZM29.9048 48.6544L20.9178 49.3058V48.4911L29.9048 47.8382V48.6544ZM29.9048 46.2074L20.9178 46.8603V46.5092C20.9178 46.346 20.9178 46.1751 20.9178 46.0118L25.1172 45.6931C25.225 45.6854 25.3266 45.6561 25.4236 45.6084C25.5207 45.5591 25.6038 45.4944 25.6747 45.4128C25.7439 45.3296 25.7963 45.2388 25.8302 45.1356C25.8641 45.034 25.8764 44.9277 25.8687 44.8215C25.8625 44.7121 25.8348 44.6105 25.7855 44.5135C25.7378 44.4165 25.6716 44.3318 25.59 44.2609C25.5083 44.1886 25.4159 44.1362 25.3128 44.1023C25.2096 44.0684 25.1033 44.0546 24.9955 44.0623L20.6329 44.381C20.0447 41.9988 18.6233 39.4871 17.1188 36.8215C14.9706 33.0287 12.7484 29.091 12.7484 25.3059C12.7484 24.8932 12.7685 24.4789 12.81 24.0678C12.8501 23.6551 12.9101 23.247 12.9918 22.8405C13.0734 22.4339 13.1735 22.0335 13.2936 21.6378C13.4137 21.2405 13.5538 20.8524 13.7124 20.469C13.8711 20.0871 14.0482 19.7129 14.2437 19.3479C14.4393 18.9829 14.6518 18.6287 14.8828 18.2838C15.1138 17.9404 15.3602 17.6078 15.6235 17.2875C15.8853 16.9672 16.164 16.6607 16.4581 16.3681C16.7507 16.0755 17.0572 15.7983 17.3775 15.535C17.6993 15.2732 18.032 15.0268 18.3769 14.7974C18.7219 14.5664 19.076 14.3539 19.4425 14.1599C19.8075 13.9643 20.1832 13.7872 20.5652 13.6286C20.9486 13.47 21.3382 13.3314 21.7355 13.2113C22.1328 13.0911 22.5347 12.9895 22.9413 12.9094C23.3478 12.8294 23.7574 12.7678 24.1701 12.7277C24.5828 12.6861 24.9971 12.6661 25.4113 12.6661C25.8271 12.6661 26.2398 12.6861 26.6525 12.7277C27.0652 12.7678 27.4748 12.8294 27.8829 12.9094C28.2895 12.9895 28.6914 13.0911 29.0871 13.2113C29.4844 13.3314 29.874 13.47 30.2575 13.6286C30.6409 13.7872 31.0151 13.9643 31.3816 14.1599C31.7466 14.3539 32.1023 14.5664 32.4473 14.7974C32.7922 15.0268 33.1248 15.2732 33.4452 15.535C33.7655 15.7983 34.0734 16.0755 34.366 16.3681C34.6586 16.6607 34.9373 16.9672 35.2007 17.2875C35.464 17.6078 35.7104 17.9404 35.9414 18.2838C36.1708 18.6287 36.3849 18.9829 36.5789 19.3479C36.7745 19.7129 36.9516 20.0871 37.1117 20.469C37.2703 20.8524 37.4089 21.2405 37.5291 21.6378C37.6507 22.0335 37.7508 22.4339 37.8309 22.8405C37.9125 23.247 37.9726 23.6551 38.0141 24.0678C38.0542 24.4789 38.0742 24.8932 38.0742 25.3059C38.0742 28.569 35.9183 32.5405 33.8348 36.3488C31.8898 39.8952 30.0604 43.2477 29.9295 46.1751L29.9048 46.2074Z" fill="#0C6460"/>
<mask id="mask0_620_1104" style="mask-type:luminance" maskUnits="userSpaceOnUse" x="23" y="0" width="4" height="10">
<path d="M23.8906 0H26.6502V9.65076H23.8906V0Z" fill="white"/>
</mask>
<g mask="url(#mask0_620_1104)">
<path d="M26.6352 8.04627V1.39222C26.6352 1.22898 26.6044 1.07345 26.5412 0.924076C26.4796 0.773162 26.3919 0.640729 26.2764 0.526773C26.1609 0.411279 26.0284 0.323502 25.8791 0.261905C25.7281 0.198767 25.5726 0.167969 25.4094 0.167969C25.2477 0.167969 25.0906 0.198767 24.9412 0.261905C24.7903 0.323502 24.6579 0.411279 24.5439 0.526773C24.4284 0.640729 24.3391 0.773162 24.2775 0.924076C24.2159 1.07345 24.1836 1.22898 24.1836 1.39222V8.05397C24.1836 8.21566 24.2159 8.37273 24.2775 8.52211C24.3391 8.67148 24.4284 8.80392 24.5439 8.91941C24.6579 9.03337 24.7903 9.12268 24.9412 9.18428C25.0906 9.24588 25.2477 9.27668 25.4094 9.27668C25.5726 9.27668 25.7281 9.24588 25.8791 9.18428C26.0284 9.12268 26.1609 9.03337 26.2764 8.91941C26.3919 8.80392 26.4796 8.67148 26.5412 8.52211C26.6044 8.37273 26.6352 8.21566 26.6352 8.05397V8.04627Z" fill="#0C6460"/>
</g>
<path d="M16.6653 11.631C16.7715 11.6294 16.8762 11.6156 16.9779 11.5878C17.0811 11.5601 17.1781 11.5185 17.2705 11.4662C17.3629 11.4123 17.446 11.3491 17.5215 11.2737C17.5969 11.1982 17.6616 11.1151 17.7155 11.0242C17.7679 10.9318 17.8094 10.8348 17.8372 10.7316C17.8664 10.63 17.8803 10.5253 17.8818 10.419C17.8818 10.3128 17.8695 10.2081 17.8433 10.1064C17.8171 10.0032 17.7786 9.90469 17.7263 9.81229L14.3939 4.02984C14.3123 3.88971 14.2075 3.76959 14.0782 3.67104C13.9488 3.57248 13.8056 3.50164 13.6485 3.46007C13.4915 3.41849 13.3329 3.40771 13.1712 3.42773C13.011 3.44929 12.8601 3.50011 12.7184 3.58172C12.5783 3.66334 12.4582 3.76805 12.3581 3.89587C12.2595 4.02522 12.1887 4.16844 12.1471 4.32551C12.1055 4.48104 12.0947 4.63966 12.1163 4.80135C12.1363 4.9615 12.1887 5.11242 12.2688 5.25409L15.6027 11.0196C15.7121 11.209 15.8614 11.3584 16.0508 11.4662C16.2418 11.5755 16.4451 11.631 16.6653 11.631Z" fill="#0C6460"/>
<path d="M11.341 17.4363C11.4164 17.2977 11.4626 17.1499 11.4811 16.9944C11.4996 16.8373 11.4872 16.6833 11.4457 16.5308C11.4026 16.3799 11.3348 16.2398 11.2393 16.1151C11.1438 15.9903 11.0283 15.8872 10.8928 15.8055L5.11654 12.4793C4.97487 12.3977 4.82396 12.3468 4.6638 12.3253C4.50211 12.3037 4.3435 12.3145 4.18642 12.3561C4.02935 12.3992 3.88614 12.4685 3.75678 12.5686C3.62743 12.6672 3.52271 12.7857 3.4411 12.9274C3.35948 13.0675 3.30866 13.2185 3.2871 13.3786C3.26708 13.5403 3.27786 13.6989 3.31944 13.856C3.36102 14.0131 3.43186 14.1547 3.53041 14.2841C3.63051 14.4134 3.75062 14.5182 3.89076 14.5982L9.66705 17.926C9.80564 18.0015 9.95347 18.0477 10.1105 18.0646C10.2676 18.0831 10.4216 18.0708 10.5741 18.0292C10.7265 17.9876 10.8651 17.9183 10.9914 17.8229C11.1161 17.7274 11.2193 17.6119 11.3009 17.4779L11.341 17.4363Z" fill="#0C6460"/>
<mask id="mask1_620_1104" style="mask-type:luminance" maskUnits="userSpaceOnUse" x="0" y="24" width="10" height="3">
<path d="M0 24.2324H9.29966V26.992H0V24.2324Z" fill="white"/>
</mask>
<g mask="url(#mask1_620_1104)">
<path d="M1.28829 26.779H7.96236C8.12559 26.779 8.28113 26.7482 8.43204 26.685C8.58141 26.6235 8.71385 26.5357 8.82934 26.4202C8.94484 26.3062 9.03261 26.1738 9.09575 26.0244C9.15735 25.8735 9.18815 25.718 9.18815 25.5563C9.18815 25.393 9.15735 25.2375 9.09575 25.0881C9.03261 24.9372 8.94484 24.8048 8.82934 24.6908C8.71385 24.5753 8.58141 24.4876 8.43204 24.426C8.28113 24.3628 8.12559 24.332 7.96236 24.332H1.28829C1.12505 24.332 0.969521 24.3628 0.818607 24.426C0.669234 24.4876 0.5368 24.5753 0.421304 24.6908C0.307349 24.8048 0.218033 24.9372 0.156436 25.0881C0.0932988 25.2375 0.0625 25.393 0.0625 25.5563C0.0625 25.718 0.0932988 25.8735 0.156436 26.0244C0.218033 26.1738 0.307349 26.3062 0.421304 26.4202C0.5368 26.5357 0.669234 26.6235 0.818607 26.685C0.969521 26.7482 1.12505 26.779 1.28829 26.779Z" fill="#0C6460"/>
</g>
<path d="M3.48899 38.2318C3.57061 38.3673 3.67378 38.4828 3.79852 38.5768C3.92479 38.6722 4.06339 38.7415 4.21584 38.7831C4.36829 38.8247 4.52229 38.837 4.67936 38.8185C4.83643 38.8016 4.98427 38.7554 5.12286 38.6799L10.8992 35.3537C11.0393 35.2721 11.1594 35.1673 11.2595 35.038C11.3581 34.9102 11.4289 34.767 11.4705 34.6099C11.5136 34.4528 11.5228 34.2942 11.5028 34.1341C11.4812 33.9724 11.4304 33.8214 11.3488 33.6813C11.2672 33.5412 11.1625 33.4211 11.0331 33.3225C10.9038 33.224 10.7606 33.1531 10.6035 33.11C10.4464 33.0684 10.2878 33.0576 10.1261 33.0792C9.96595 33.1008 9.81504 33.1516 9.67336 33.2332L3.93865 36.5594C3.79698 36.6411 3.67686 36.7458 3.57831 36.8751C3.47975 37.0029 3.40892 37.1462 3.36734 37.3032C3.32422 37.4588 3.31344 37.6189 3.335 37.7791C3.35656 37.9408 3.40738 38.0917 3.48899 38.2318Z" fill="#0C6460"/>
<path d="M40.022 35.2546L45.8321 38.5901C45.9723 38.6702 46.1232 38.721 46.2849 38.7425C46.445 38.7626 46.6036 38.7533 46.7607 38.7102C46.9178 38.6686 47.061 38.5978 47.1888 38.4992C47.3182 38.4007 47.4229 38.2806 47.5045 38.1404C47.5861 38.0003 47.6369 37.8494 47.6585 37.6892C47.6785 37.5275 47.6693 37.3689 47.6262 37.2119C47.5846 37.0563 47.5137 36.9131 47.4152 36.7853C47.3166 36.6559 47.1981 36.5512 47.0564 36.4696L41.2801 33.1418C41.14 33.0617 40.989 33.0109 40.8273 32.9894C40.6672 32.9678 40.507 32.9786 40.35 33.0202C40.1929 33.0633 40.0497 33.1326 39.9219 33.2311C39.7925 33.3312 39.6878 33.4498 39.6062 33.5915C39.5246 33.7316 39.4737 33.8825 39.4522 34.0427C39.4306 34.2044 39.4414 34.363 39.4845 34.52C39.5261 34.6771 39.5969 34.8188 39.6955 34.9481C39.7941 35.076 39.9142 35.1822 40.0558 35.2623L40.022 35.2546Z" fill="#0C6460"/>
<mask id="mask2_620_1104" style="mask-type:luminance" maskUnits="userSpaceOnUse" x="41" y="24" width="10" height="3">
<path d="M41.625 24.2324H50.8153V26.992H41.625V24.2324Z" fill="white"/>
</mask>
<g mask="url(#mask2_620_1104)">
<path d="M50.8561 25.459C50.8561 25.2973 50.8253 25.1403 50.7637 24.9909C50.7006 24.8415 50.6128 24.7091 50.4973 24.5936C50.3834 24.4796 50.2509 24.3903 50.1 24.3287C49.9506 24.2671 49.7936 24.2363 49.6319 24.2363H42.9563C42.7946 24.2363 42.6375 24.2671 42.4881 24.3287C42.3372 24.3903 42.2048 24.4796 42.0893 24.5936C41.9753 24.7091 41.886 24.8415 41.8244 24.9909C41.7613 25.1403 41.7305 25.2973 41.7305 25.459C41.7305 25.6207 41.7613 25.7778 41.8244 25.9272C41.886 26.0765 41.9753 26.209 42.0893 26.3245C42.2048 26.4384 42.3372 26.5277 42.4881 26.5893C42.6375 26.6509 42.7946 26.6817 42.9563 26.6817H49.6319C49.7936 26.6817 49.9506 26.6509 50.1 26.5893C50.2509 26.5277 50.3834 26.4384 50.4973 26.3245C50.6128 26.209 50.7006 26.0765 50.7637 25.9272C50.8253 25.7778 50.8561 25.6207 50.8561 25.459Z" fill="#0C6460"/>
</g>
<path d="M40.5905 17.966C40.8092 17.9675 41.0124 17.9136 41.2018 17.8043L46.9781 14.4596C47.1198 14.3795 47.2399 14.2748 47.3385 14.1454C47.437 14.0161 47.5079 13.8744 47.5494 13.7173C47.5926 13.5602 47.6033 13.4016 47.5818 13.2399C47.5602 13.0798 47.5094 12.9289 47.4278 12.7887C47.3462 12.6471 47.2415 12.5285 47.1121 12.4299C46.9843 12.3298 46.8411 12.2605 46.684 12.2174C46.5269 12.1758 46.3668 12.1651 46.2066 12.1866C46.0449 12.2082 45.894 12.259 45.7523 12.3391L39.9776 15.6669C39.8606 15.7346 39.7574 15.8178 39.6681 15.9194C39.5787 16.0211 39.5079 16.1335 39.4571 16.2582C39.4047 16.3829 39.3739 16.5123 39.3662 16.6463C39.357 16.7818 39.3693 16.9127 39.4047 17.0436C39.4402 17.1745 39.4941 17.2946 39.5695 17.407C39.645 17.5194 39.7358 17.6164 39.8436 17.698C39.9499 17.7797 40.0669 17.8428 40.1947 17.8859C40.3225 17.929 40.455 17.9506 40.5905 17.9506V17.966Z" fill="#0C6460"/>
<path d="M34.1687 11.5836C34.3874 11.5836 34.5922 11.5297 34.7816 11.4204C34.971 11.311 35.1204 11.1617 35.2297 10.9723L38.5637 5.20675C38.6453 5.06662 38.6961 4.9157 38.7177 4.75401C38.7377 4.59386 38.7285 4.43525 38.6854 4.27817C38.6438 4.1211 38.5729 3.97789 38.4744 3.85007C38.3743 3.72072 38.2542 3.616 38.114 3.53438C37.9739 3.45431 37.8215 3.40195 37.6613 3.38193C37.4996 3.36037 37.341 3.37115 37.1839 3.41273C37.0268 3.45431 36.8836 3.52514 36.7543 3.6237C36.6249 3.7238 36.5202 3.84237 36.4386 3.98404L33.1062 9.74956C32.9968 9.93743 32.9414 10.1422 32.9414 10.3609C32.9414 10.5796 32.9968 10.7829 33.1062 10.9723C33.2155 11.1617 33.3649 11.311 33.5543 11.4204C33.7453 11.5297 33.9485 11.5836 34.1687 11.5836Z" fill="#0C6460"/>
<path d="M32.7608 23.2443H31.3318C31.2548 23.018 31.1639 22.7977 31.0623 22.5837L32.074 21.572C32.151 21.495 32.2095 21.4072 32.2511 21.3086C32.2911 21.2085 32.3127 21.1054 32.3127 20.9976C32.3127 20.8898 32.2911 20.785 32.2511 20.6865C32.2095 20.5864 32.151 20.4986 32.074 20.4216L30.3092 18.6615C30.2338 18.5845 30.1445 18.526 30.0459 18.4859C29.9458 18.4443 29.8411 18.4243 29.7333 18.4243C29.6255 18.4243 29.5223 18.4443 29.4222 18.4859C29.3221 18.526 29.2344 18.5845 29.1574 18.6615L28.1456 19.6717C27.93 19.57 27.7083 19.4792 27.4835 19.4022V17.967C27.4835 17.8592 27.4619 17.756 27.4203 17.6559C27.3787 17.5558 27.3202 17.468 27.2432 17.391C27.1678 17.314 27.0785 17.2555 26.9784 17.2139C26.8783 17.1724 26.7751 17.1523 26.6658 17.1523H24.1587C24.0494 17.1523 23.9462 17.1724 23.8461 17.2139C23.746 17.2555 23.6567 17.314 23.5797 17.391C23.5043 17.468 23.4442 17.5558 23.4026 17.6559C23.3611 17.756 23.341 17.8592 23.341 17.967V19.4022C23.1177 19.4807 22.9006 19.57 22.6881 19.6717L21.6656 18.6522C21.5901 18.5768 21.5008 18.5183 21.4023 18.4767C21.3022 18.4366 21.1975 18.4151 21.0897 18.4151C20.9819 18.4151 20.8787 18.4366 20.7786 18.4767C20.6785 18.5183 20.5907 18.5768 20.5137 18.6522L18.749 20.4139C18.6735 20.4909 18.615 20.5787 18.5734 20.6773C18.5334 20.7773 18.5118 20.8805 18.5118 20.9883C18.5118 21.0961 18.5334 21.2008 18.5734 21.2994C18.615 21.3995 18.6735 21.4873 18.749 21.5643L19.7792 22.5914C19.6775 22.8008 19.5867 23.0164 19.5097 23.2351H18.0544C17.9467 23.2351 17.8419 23.2566 17.7418 23.2982C17.6417 23.3398 17.554 23.3983 17.477 23.4738C17.4015 23.5508 17.3415 23.6385 17.2999 23.7386C17.2583 23.8387 17.2383 23.9434 17.2383 24.0512V26.5459C17.2383 26.6553 17.2583 26.7584 17.2999 26.8585C17.3415 26.9586 17.4015 27.0464 17.477 27.1234C17.554 27.1989 17.6417 27.2589 17.7418 27.3005C17.8419 27.3405 17.9467 27.3621 18.0544 27.3621H19.5174C19.5928 27.5792 19.6806 27.7902 19.7792 27.9981L18.7413 29.0329C18.6658 29.1099 18.6073 29.1977 18.5657 29.2978C18.5241 29.3979 18.5041 29.5011 18.5041 29.6089C18.5041 29.7167 18.5241 29.8198 18.5657 29.9199C18.6073 30.0185 18.6658 30.1078 18.7413 30.1833L20.506 31.9526C20.583 32.0296 20.6708 32.0882 20.7709 32.1282C20.871 32.1698 20.9742 32.1898 21.082 32.1898C21.1898 32.1898 21.2945 32.1698 21.393 32.1282C21.4931 32.0882 21.5809 32.0296 21.6579 31.9526L22.6958 30.9178C22.9037 31.0164 23.1162 31.1026 23.3333 31.1781V32.6456C23.3333 32.7549 23.3534 32.8581 23.3949 32.9582C23.4365 33.0583 23.495 33.1461 23.572 33.2231C23.649 33.3001 23.7368 33.3586 23.8369 33.4002C23.937 33.4418 24.0417 33.4618 24.1495 33.4618H26.6504C26.7581 33.4618 26.8629 33.4418 26.963 33.4002C27.0631 33.3586 27.1508 33.3001 27.2278 33.2231C27.3048 33.1461 27.3633 33.0583 27.4049 32.9582C27.4465 32.8581 27.4665 32.7549 27.4665 32.6456V31.195C27.6867 31.1165 27.9023 31.0271 28.1118 30.9255L29.142 31.9526C29.2174 32.0296 29.3067 32.0882 29.4068 32.1282C29.5054 32.1698 29.6101 32.1898 29.7179 32.1898C29.8257 32.1898 29.9289 32.1698 30.029 32.1282C30.1291 32.0882 30.2168 32.0296 30.2938 31.9526L32.0663 30.2002C32.1418 30.1232 32.2018 30.0354 32.2419 29.9353C32.2834 29.8368 32.3034 29.7321 32.3034 29.6243C32.3034 29.5165 32.2834 29.4133 32.2419 29.3132C32.2018 29.2146 32.1418 29.1269 32.0663 29.0499L31.0453 28.0304C31.1485 27.8179 31.2378 27.6008 31.3148 27.3775H32.7608C32.8686 27.3775 32.9733 27.3575 33.0734 27.3159C33.1735 27.2743 33.2613 27.2158 33.3383 27.1388C33.4153 27.0634 33.4738 26.974 33.5154 26.8755C33.557 26.7754 33.5785 26.6707 33.5785 26.5629V24.0589C33.5785 23.9511 33.557 23.8464 33.5154 23.7479C33.4738 23.6478 33.4153 23.5585 33.3383 23.483C33.2613 23.406 33.1735 23.3475 33.0734 23.3059C32.9733 23.2643 32.8686 23.2443 32.7608 23.2443ZM31.9446 25.739H30.7096C30.6157 25.7359 30.5248 25.7498 30.4355 25.7791C30.3462 25.8083 30.2646 25.8514 30.1907 25.9084C30.1152 25.9654 30.0536 26.0331 30.0012 26.1117C29.9504 26.1902 29.915 26.2764 29.8935 26.3673C29.7749 26.8539 29.5839 27.3113 29.3206 27.7363C29.2759 27.8179 29.2467 27.9042 29.2313 27.995C29.2159 28.0859 29.2159 28.1767 29.2313 28.2691C29.2467 28.36 29.2775 28.4462 29.3221 28.5263C29.3668 28.6079 29.4238 28.6787 29.4931 28.7403L30.3092 29.6119L29.6979 30.2248L28.8478 29.384C28.72 29.2485 28.5645 29.1669 28.3797 29.1376C28.1964 29.1099 28.0224 29.1392 27.8592 29.23C27.4342 29.4918 26.9799 29.6782 26.4948 29.7921C26.404 29.8137 26.3177 29.8491 26.2392 29.8999C26.1607 29.9507 26.0929 30.0139 26.0344 30.0878C25.9774 30.1632 25.9343 30.2449 25.905 30.3326C25.8758 30.4219 25.8634 30.5143 25.865 30.6083V31.831H24.9749V30.5744C24.978 30.4805 24.9641 30.3896 24.9349 30.3003C24.9056 30.211 24.8625 30.1294 24.8055 30.0554C24.7485 29.9815 24.6808 29.9184 24.6007 29.8676C24.5222 29.8168 24.4375 29.7813 24.3466 29.7598C23.8538 29.6551 23.3903 29.4764 22.9576 29.2208C22.8791 29.1731 22.7959 29.1392 22.705 29.1192C22.6157 29.0991 22.5264 29.0945 22.4356 29.1038C22.3432 29.1145 22.2569 29.1392 22.1738 29.1792C22.0906 29.2193 22.0167 29.2716 21.952 29.3348L21.0943 30.2002L20.506 29.6119L21.3961 28.7234C21.5178 28.5894 21.5855 28.4324 21.6025 28.2537C21.6194 28.0736 21.5809 27.9072 21.487 27.7532C21.2252 27.3328 21.0373 26.8816 20.9233 26.3996C20.9018 26.3088 20.8648 26.2241 20.814 26.144C20.7632 26.0655 20.7001 25.9977 20.6261 25.9407C20.5522 25.8838 20.4691 25.8406 20.3813 25.8114C20.292 25.7821 20.1996 25.7698 20.1056 25.7714H18.8722V24.8751H20.1226C20.2165 24.8766 20.3074 24.8643 20.3967 24.8351C20.486 24.8058 20.5676 24.7627 20.6431 24.7057C20.717 24.6487 20.7801 24.581 20.8309 24.5024C20.8818 24.4224 20.9172 24.3377 20.9387 24.2468C21.0435 23.7556 21.2236 23.2936 21.4777 22.8609C21.5686 22.6976 21.5994 22.5236 21.5701 22.3404C21.5409 22.1571 21.4592 22.0016 21.3237 21.8738L20.506 21.0006L21.1189 20.3893L21.969 21.2301C22.0336 21.2948 22.1091 21.3471 22.1922 21.3872C22.2754 21.4287 22.3632 21.4534 22.4556 21.4642C22.5464 21.4734 22.6388 21.4688 22.7281 21.4488C22.819 21.4272 22.9037 21.3933 22.9822 21.344C23.4073 21.0792 23.8646 20.8882 24.3543 20.7727C24.4452 20.7512 24.5314 20.7157 24.6099 20.6649C24.6885 20.6141 24.7562 20.551 24.8132 20.4771C24.8717 20.4031 24.9148 20.32 24.9441 20.2322C24.9718 20.1429 24.9857 20.0505 24.9826 19.9581V18.7831H25.8496V20.0058C25.8465 20.0998 25.8604 20.1922 25.8896 20.2799C25.9173 20.3693 25.962 20.4509 26.019 20.5263C26.076 20.6003 26.1437 20.6619 26.2223 20.7127C26.3023 20.7635 26.387 20.8004 26.4779 20.822C26.9707 20.936 27.4311 21.1269 27.8592 21.3933C27.9393 21.4364 28.024 21.4672 28.1148 21.4826C28.2041 21.498 28.295 21.498 28.3859 21.4826C28.4767 21.4688 28.5614 21.4395 28.6415 21.3964C28.7231 21.3517 28.7939 21.2963 28.8555 21.2301L29.721 20.4139L30.3339 21.0253L29.4931 21.8568C29.4269 21.9215 29.373 21.9939 29.3298 22.0755C29.2883 22.1571 29.2605 22.2434 29.2482 22.3342C29.2359 22.4266 29.239 22.5159 29.2575 22.6068C29.2744 22.6961 29.3067 22.7808 29.3545 22.8609C29.6209 23.289 29.8118 23.7479 29.9258 24.2391C29.9474 24.33 29.9843 24.4147 30.0351 24.4932C30.0859 24.5717 30.1475 24.641 30.223 24.698C30.2969 24.755 30.3785 24.7981 30.4678 24.8274C30.5572 24.8551 30.6496 24.8689 30.7435 24.8659H31.9446V25.739Z" fill="#0C6460"/>
</svg>
