<svg width="53" height="50" viewBox="0 0 53 50" fill="none" xmlns="http://www.w3.org/2000/svg">
<path d="M19.6691 34.0929C19.6691 34.2572 19.6378 34.414 19.575 34.5664C19.5123 34.7172 19.4242 34.8501 19.3092 34.9666C19.1942 35.0816 19.0598 35.1712 18.9105 35.2339C18.7596 35.2967 18.6028 35.328 18.44 35.328C18.2772 35.328 18.1204 35.2967 17.9696 35.2339C17.8188 35.1712 17.6858 35.0816 17.5709 34.9666C17.4544 34.8501 17.3663 34.7172 17.3035 34.5664C17.2408 34.414 17.2109 34.2572 17.2109 34.0929C17.2109 33.9302 17.2408 33.7719 17.3035 33.621C17.3663 33.4702 17.4544 33.3358 17.5709 33.2208C17.6858 33.1043 17.8188 33.0162 17.9696 32.9535C18.1204 32.8907 18.2772 32.8594 18.44 32.8594C18.6028 32.8594 18.7596 32.8907 18.9105 32.9535C19.0598 33.0162 19.1942 33.1043 19.3092 33.2208C19.4242 33.3358 19.5123 33.4702 19.575 33.621C19.6378 33.7719 19.6691 33.9302 19.6691 34.0929Z" fill="#0C6460"/>
<path d="M24.1769 34.0929C24.1769 34.2572 24.1456 34.414 24.0828 34.5664C24.0216 34.7172 23.932 34.8501 23.817 34.9666C23.702 35.0816 23.5691 35.1712 23.4183 35.2339C23.2674 35.2967 23.1106 35.328 22.9478 35.328C22.7851 35.328 22.6282 35.2967 22.4774 35.2339C22.3266 35.1712 22.1937 35.0816 22.0787 34.9666C21.9637 34.8501 21.8741 34.7172 21.8113 34.5664C21.7501 34.414 21.7188 34.2572 21.7188 34.0929C21.7188 33.9302 21.7501 33.7719 21.8113 33.621C21.8741 33.4702 21.9637 33.3358 22.0787 33.2208C22.1937 33.1043 22.3266 33.0162 22.4774 32.9535C22.6282 32.8907 22.7851 32.8594 22.9478 32.8594C23.1106 32.8594 23.2674 32.8907 23.4183 32.9535C23.5691 33.0162 23.702 33.1043 23.817 33.2208C23.932 33.3358 24.0216 33.4702 24.0828 33.621C24.1456 33.7719 24.1769 33.9302 24.1769 34.0929Z" fill="#0C6460"/>
<path d="M28.6808 34.0929C28.6808 34.2572 28.6495 34.414 28.5868 34.5664C28.5255 34.7172 28.4359 34.8501 28.3209 34.9666C28.2059 35.0816 28.073 35.1712 27.9222 35.2339C27.7713 35.2967 27.6145 35.328 27.4517 35.328C27.289 35.328 27.1322 35.2967 26.9813 35.2339C26.8305 35.1712 26.6976 35.0816 26.5826 34.9666C26.4676 34.8501 26.378 34.7172 26.3152 34.5664C26.254 34.414 26.2227 34.2572 26.2227 34.0929C26.2227 33.9302 26.254 33.7719 26.3152 33.621C26.378 33.4702 26.4676 33.3358 26.5826 33.2208C26.6976 33.1043 26.8305 33.0162 26.9813 32.9535C27.1322 32.8907 27.289 32.8594 27.4517 32.8594C27.6145 32.8594 27.7713 32.8907 27.9222 32.9535C28.073 33.0162 28.2059 33.1043 28.3209 33.2208C28.4359 33.3358 28.5255 33.4702 28.5868 33.621C28.6495 33.7719 28.6808 33.9302 28.6808 34.0929Z" fill="#0C6460"/>
<mask id="mask0_620_1215" style="mask-type:luminance" maskUnits="userSpaceOnUse" x="0" y="0" width="53" height="50">
<path d="M0 0H52.2849V50H0V0Z" fill="white"/>
</mask>
<g mask="url(#mask0_620_1215)">
<path d="M45.5645 0.0292969H30.5675C26.8802 0.0292969 23.8471 3.0744 23.8471 6.77661V10.2324C23.6022 10.2324 23.3557 10.2324 23.0287 10.2324H22.8644C17.9465 10.2324 13.1123 12.0424 9.42354 15.2518C5.73626 18.4612 3.36022 22.822 2.62246 27.595C1.06482 28.9107 0 31.1329 0 33.6016C0 37.4681 2.45818 40.6774 5.65412 40.9239C5.98268 41.336 6.47401 41.6646 7.04749 41.6646H8.19444C9.17861 41.6646 9.91637 40.8417 9.91637 39.9367V27.3471C9.91637 26.3599 9.09648 25.6192 8.19444 25.6192H7.04749C6.47401 25.6192 5.98268 25.8671 5.65412 26.3599C5.16278 26.3599 4.58931 26.5242 4.17861 26.69C5.98268 17.9669 13.8501 11.5496 22.8644 11.5496H23.0287C23.3557 11.5496 23.6843 11.5496 23.8471 11.5496V17.0619C23.8471 17.9669 23.4379 21.5884 22.8644 26.69C22.7823 27.1007 23.0287 27.5129 23.4379 27.7593C23.6022 27.8414 23.7664 27.9236 23.9292 27.9236C24.1756 27.9236 24.422 27.8414 24.5848 27.6771C28.1093 24.7963 30.0762 23.8092 30.5675 23.8092H40.7303C41.2216 24.88 41.3859 25.6192 41.5502 26.6078C41.1395 26.4421 40.7303 26.3599 40.2389 26.3599C39.9104 25.9492 39.4191 25.6192 38.8456 25.6192H37.6971C36.7145 25.6192 35.9767 26.4421 35.9767 27.3471V39.8546C35.9767 40.8417 36.7966 41.5825 37.6971 41.5825H38.8456H38.9277C38.3527 43.2282 36.9609 44.7918 36.2231 45.2847C33.5185 47.2605 29.3384 47.7533 26.8802 47.8354C26.6338 47.4248 26.2246 47.1783 25.6511 47.1783H23.3557C22.618 47.1783 21.9624 47.8354 21.9624 48.5762C21.9624 49.3169 22.618 49.9755 23.3557 49.9755H25.6511C26.2246 49.9755 26.6338 49.647 26.8802 49.2348C29.5027 49.1527 33.9277 48.5762 36.9609 46.4376C37.9436 45.6969 40.0747 43.3925 40.4017 40.9239C43.4349 40.5132 45.8109 37.4681 45.8109 33.6837C45.8109 31.0508 44.664 28.7464 42.9421 27.4292C42.6971 26.0314 42.615 25.0442 42.1237 23.8092H45.4839C49.1711 23.8092 52.2028 20.7656 52.2028 17.0619V6.77661C52.2849 3.0744 49.2533 0.0292969 45.5645 0.0292969ZM1.31123 33.6016C1.31123 30.6386 3.03166 28.17 5.32706 27.6771V39.526C3.03166 39.1138 1.31123 36.6452 1.31123 33.6016ZM6.63829 27.3471C6.63829 27.1007 6.80108 26.9364 7.04749 26.9364H8.19444C8.44086 26.9364 8.60514 27.1007 8.60514 27.3471V39.8546C8.60514 40.101 8.44086 40.2668 8.19444 40.2668H7.04749C6.80108 40.2668 6.63829 40.101 6.63829 39.8546V27.3471ZM37.6971 40.3489C37.4522 40.3489 37.2879 40.1831 37.2879 39.9367V27.3471C37.2879 27.1007 37.4522 26.9364 37.6971 26.9364H38.8456C39.0905 26.9364 39.2548 27.1007 39.2548 27.3471V39.8546C39.2548 40.101 39.0905 40.2668 38.8456 40.2668H37.6971V40.3489ZM44.5818 33.6016C44.5818 36.563 42.8614 39.0317 40.566 39.526V27.7593C42.8614 28.17 44.5818 30.6386 44.5818 33.6016ZM50.9737 17.0619C50.9737 20.0248 48.5155 22.4935 45.5645 22.4935H30.5675C29.5027 22.4935 27.3716 23.727 24.2578 26.2778C24.5848 23.5627 25.2404 18.3791 25.2404 17.0619V6.77661C25.2404 3.81514 27.7001 1.3465 30.6496 1.3465H45.6467C48.5977 1.3465 51.0559 3.81514 51.0559 6.77661V17.0619H50.9737Z" fill="#0C6460"/>
</g>
<path d="M45.5656 7.34961H30.2416C29.913 7.34961 29.5859 7.67816 29.5859 8.00821C29.5859 8.33677 29.913 8.66681 30.2416 8.66681H45.6478C45.9763 8.66681 46.3034 8.33677 46.3034 8.00821C46.3034 7.67816 45.9763 7.34961 45.5656 7.34961Z" fill="#0C6460"/>
<path d="M45.5656 11.6289H30.2416C29.913 11.6289 29.5859 11.9575 29.5859 12.2875C29.5859 12.6161 29.913 12.9461 30.2416 12.9461H45.6478C45.9763 12.9461 46.3034 12.6161 46.3034 12.2875C46.3034 11.9575 45.9763 11.6289 45.5656 11.6289Z" fill="#0C6460"/>
<path d="M45.5618 15.8281H30.1556C29.8271 15.8281 29.5 16.1567 29.5 16.4867C29.5 16.8153 29.8271 17.1438 30.1556 17.1438H45.5618C45.8904 17.1438 46.2174 16.8153 46.2174 16.4867C46.2174 16.1567 45.9725 15.8281 45.5618 15.8281Z" fill="#0C6460"/>
</svg>
