<svg width="16" height="16" viewBox="0 0 16 16" fill="none" xmlns="http://www.w3.org/2000/svg">
<path d="M2.26562 2.26562C2.26562 2.26562 2.64323 1.88802 3.39844 1.13281C4.15365 0.377604 5.60417 0 7.75 0C9.89583 0 11.724 0.755208 13.2344 2.26562C14.7448 3.77604 15.5 5.60417 15.5 7.75C15.5 9.89583 14.7448 11.724 13.2344 13.2344C11.724 14.7448 9.89583 15.5 7.75 15.5C5.60417 15.5 3.77604 14.7448 2.26562 13.2344C0.755208 11.724 0 9.89583 0 7.75C0 5.60417 0.755208 3.77604 2.26562 2.26562ZM3.32812 12.1719C3.32812 12.1719 3.63281 12.4766 4.24219 13.0859C4.85156 13.6953 6.02083 14 7.75 14C9.47917 14 10.9531 13.3906 12.1719 12.1719C13.3906 10.9531 14 9.47917 14 7.75C14 6.02083 13.3906 4.54688 12.1719 3.32812C10.9531 2.10938 9.47917 1.5 7.75 1.5C6.02083 1.5 4.54688 2.10938 3.32812 3.32812C2.10938 4.54688 1.5 6.02083 1.5 7.75C1.5 9.47917 2.10938 10.9531 3.32812 12.1719ZM9.6875 10.75L7.03125 8.8125C6.92708 8.72917 6.875 8.625 6.875 8.5V3.375C6.875 3.125 7 3 7.25 3H8.25C8.5 3 8.625 3.125 8.625 3.375V7.8125L10.7188 9.3125C10.9062 9.45833 10.9271 9.63542 10.7812 9.84375L10.2188 10.6562C10.0729 10.8646 9.89583 10.8958 9.6875 10.75Z" fill="#0C6460"/>
</svg>
