<svg width="68" height="69" viewBox="0 0 68 69" fill="none" xmlns="http://www.w3.org/2000/svg">
<mask id="mask0_620_1095" style="mask-type:luminance" maskUnits="userSpaceOnUse" x="0" y="0" width="68" height="69">
<path d="M0 0H67.6933V68.62H0V0Z" fill="white"/>
</mask>
<g mask="url(#mask0_620_1095)">
<path d="M41.2257 32.8256C41.0637 32.6177 40.8148 32.4969 40.5514 32.4969C40.288 32.4969 40.0379 32.6177 39.8771 32.8256L33.9164 40.4659C33.7159 40.7245 33.6808 41.0725 33.8234 41.3661C33.966 41.6597 34.2644 41.8458 34.5919 41.8458H37.3348V49.1151C37.3348 49.5864 37.7179 49.9694 38.1903 49.9694H42.9113C43.3837 49.9694 43.7668 49.5864 43.7668 49.1151V41.8458H46.5097C46.8359 41.8458 47.1344 41.6597 47.2782 41.3661C47.422 41.0725 47.3857 40.7245 47.1839 40.4659L41.2257 32.8256ZM42.9113 40.1372C42.4388 40.1372 42.0558 40.5202 42.0558 40.9915V48.2608H39.0458V40.9915C39.0458 40.5202 38.6628 40.1372 38.1903 40.1372H36.3428L40.5514 34.742L44.76 40.1372H42.9113ZM18.1912 5.69487V0.854292C18.1912 0.383042 18.5754 0 19.0467 0C19.5191 0 19.9022 0.383042 19.9022 0.854292V5.69487C19.9022 6.16612 19.5191 6.54917 19.0467 6.54917C18.5754 6.54917 18.1912 6.16733 18.1912 5.69487ZM7.88652 4.06967C7.64969 3.66125 7.79107 3.13804 8.20069 2.90242C8.61032 2.66558 9.13352 2.80696 9.37036 3.21537L11.7943 7.40829C12.0299 7.81671 11.8897 8.33871 11.4801 8.57554C11.346 8.65287 11.1974 8.68913 11.0536 8.68913C10.7587 8.68913 10.4699 8.53567 10.3116 8.26137L7.88652 4.06967ZM4.77144 14.4178L0.572481 11.9975C0.162856 11.7607 0.023898 11.2387 0.258315 10.8303C0.495148 10.4219 1.01715 10.2817 1.42798 10.5173L5.62694 12.9376C6.03656 13.1732 6.17552 13.6965 5.94111 14.1049C5.78281 14.378 5.49402 14.5314 5.19919 14.5314C5.05419 14.5326 4.90556 14.4964 4.77144 14.4178ZM26.3015 7.40829L28.7254 3.21537C28.9623 2.80696 29.4855 2.66679 29.8951 2.90242C30.3035 3.13804 30.4437 3.66125 30.2081 4.06967L27.7842 8.26137C27.6259 8.53567 27.3383 8.68913 27.0434 8.68913C26.8972 8.68913 26.751 8.65167 26.6169 8.57554C26.2061 8.33871 26.0647 7.81671 26.3015 7.40829ZM32.1547 14.1061C31.9179 13.6977 32.0592 13.1745 32.4689 12.9388L36.6678 10.5185C37.0762 10.2817 37.5994 10.4231 37.8363 10.8315C38.0731 11.2399 37.9317 11.7631 37.5233 11.9987L33.3244 14.419C33.1902 14.4976 33.0416 14.5326 32.8978 14.5326C32.6006 14.5326 32.313 14.3792 32.1547 14.1061ZM66.6357 21.234L64.6021 21.1712C64.3701 20.3918 64.0583 19.6378 63.6704 18.9225L65.0624 17.4435C65.4648 17.0157 65.4552 16.3584 65.0407 15.944L61.8169 12.725C61.4024 12.3105 60.7426 12.3008 60.3149 12.702L58.8335 14.0928C58.1169 13.7061 57.3605 13.3944 56.5775 13.1612L56.5171 11.1324C56.499 10.5451 56.0241 10.0872 55.4381 10.0872H50.8802C50.293 10.0872 49.8193 10.5451 49.8024 11.1324L49.7408 13.1612C48.9578 13.3944 48.2026 13.7061 47.4836 14.0952L46.0058 12.7032C45.5781 12.302 44.9183 12.3117 44.5026 12.7262L41.2788 15.9452C40.8631 16.3596 40.8535 17.0194 41.2559 17.4459L42.6491 18.9225C42.2612 19.6402 41.947 20.3942 41.715 21.1772L39.6826 21.2389C39.0954 21.2558 38.6362 21.7295 38.6362 22.3143V23.832C36.7246 24.2319 34.9435 25.091 33.4283 26.355C32.7009 25.288 31.7813 24.3576 30.7216 23.6145C30.9814 22.591 31.124 21.4431 31.0938 20.1284C31.0877 13.5019 25.6889 8.11396 19.0515 8.11396C12.4141 8.11396 7.01411 13.5019 7.00807 20.1284C6.8969 25.0065 9.13352 27.6128 11.1079 29.9111C12.3972 31.413 13.5101 32.7132 13.7723 34.4375V34.568C11.1345 34.9257 8.7529 36.192 6.99719 38.1954C5.10736 40.3523 4.06819 43.2064 4.06819 46.2345C4.06819 52.7268 9.35827 58.0097 15.8615 58.0097H19.408V65.4578C19.408 67.2051 20.8326 68.6261 22.5811 68.6261H44.7346C46.4855 68.6261 47.9089 67.2039 47.9089 65.4578V58.0097H51.4554C57.9562 58.0097 63.2475 52.728 63.2475 46.2345C63.2475 41.6271 60.5276 37.561 56.5727 35.6386L56.5824 35.328C57.3654 35.0948 58.1206 34.7831 58.8383 34.3964L60.3209 35.7872C60.7487 36.1872 61.4072 36.1775 61.8217 35.763L65.0455 32.544C65.4612 32.1296 65.4709 31.4722 65.0685 31.0445L63.6753 29.5655C64.0631 28.849 64.3761 28.0962 64.6081 27.3144L66.6417 27.2515C67.2278 27.2334 67.6869 26.761 67.6869 26.1761V22.3179C67.6809 21.7258 67.2217 21.2534 66.6357 21.234ZM8.71544 20.1526C8.71544 20.1453 8.71544 20.1393 8.71544 20.132C8.71544 14.4444 13.3494 9.8165 19.0467 9.8165C24.744 9.8165 29.3792 14.4432 29.3792 20.132C29.3792 20.1393 29.3792 20.1453 29.3792 20.1526C29.4782 24.383 27.5534 26.6256 25.6913 28.7934C24.4371 30.2555 23.2456 31.645 22.7696 33.5059H22.3201V31.3997C22.3201 30.9285 21.937 30.5455 21.4646 30.5455H20.9281L21.8174 26.6715C22.2053 26.9035 22.6499 27.0304 23.1139 27.0304C23.7894 27.0304 24.425 26.767 24.9023 26.2897C25.3808 25.8124 25.6442 25.178 25.6442 24.5026C25.6442 23.8283 25.3808 23.1927 24.9023 22.7167C24.425 22.2394 23.7894 21.976 23.1139 21.976C22.4373 21.976 21.8017 22.2394 21.322 22.7167C20.8616 23.1758 20.6187 23.7715 20.5885 24.3757L19.1699 30.5467H18.9126L17.5 24.4107C17.4698 23.7812 17.2136 23.1927 16.7641 22.7457C15.7769 21.7609 14.1711 21.7609 13.1839 22.7457C12.7066 23.223 12.4419 23.8585 12.4419 24.5328C12.4419 25.2083 12.7066 25.8426 13.1839 26.3199C13.6769 26.8117 14.3257 27.0582 14.9734 27.0582C15.4241 27.0582 15.8712 26.9374 16.2711 26.6993L17.1569 30.5467H16.6228C16.1515 30.5467 15.7673 30.9297 15.7673 31.401V33.5071H15.3178C14.8441 31.6487 13.6515 30.2579 12.3972 28.7958C10.54 26.6256 8.61636 24.383 8.71544 20.1526ZM17.4831 32.2528H20.6115V33.5059H17.4831V32.2528ZM22.6161 35.2145V36.2597H15.4797V35.2145H22.6161ZM15.4797 37.9683H22.6161V39.0135H15.4797V37.9683ZM21.4005 40.7208L21.0247 41.0954C20.7384 41.3818 20.4302 41.5147 20.0581 41.5147H18.0365C17.6644 41.5147 17.3574 41.3818 17.0699 41.0954L16.6929 40.7208H21.4005ZM22.5364 23.9238C22.691 23.7679 22.8964 23.6833 23.1164 23.6833C23.3363 23.6833 23.5417 23.7679 23.6964 23.9238C23.8522 24.0785 23.938 24.2839 23.938 24.5026C23.938 24.7225 23.8522 24.9267 23.6964 25.0826C23.5417 25.2372 23.3363 25.323 23.1164 25.323C22.8964 25.323 22.691 25.2372 22.5364 25.0826C22.2162 24.7636 22.2162 24.2428 22.5364 23.9238ZM15.7987 24.5316C15.7987 24.7503 15.7129 24.9557 15.5582 25.1104C15.4024 25.2662 15.1969 25.352 14.977 25.352C14.7583 25.352 14.5529 25.2662 14.397 25.1104C14.2424 24.9557 14.1566 24.7503 14.1566 24.5316C14.1566 24.3117 14.2424 24.1075 14.397 23.9516C14.5565 23.7921 14.768 23.7123 14.977 23.7123C15.1873 23.7123 15.3987 23.7921 15.5582 23.9516C15.7129 24.1062 15.7987 24.3117 15.7987 24.5316ZM46.1919 65.4518C46.1919 66.2578 45.5358 66.9127 44.7286 66.9127H22.5762C21.7691 66.9127 21.1129 66.2578 21.1129 65.4518V50.8902C21.1129 50.0842 21.7691 49.4293 22.5762 49.4293H30.3507C30.7156 49.4293 31.0394 49.5864 31.3995 49.9368L35.2456 53.6911C35.4051 53.847 35.6214 53.934 35.8437 53.934H46.1919V65.4518ZM61.5317 46.2296C61.5317 51.7807 57.0089 56.2962 51.4494 56.2962H47.9029V53.0797C47.9029 52.6084 47.5199 52.2254 47.0474 52.2254H36.1929L32.5957 48.7152C31.9094 48.0457 31.1772 47.7219 30.3507 47.7219H22.5762C20.8254 47.7219 19.4019 49.1441 19.4019 50.8902V56.295H15.8555C10.2971 56.295 5.77436 51.7783 5.77436 46.2284C5.77436 41.0652 9.08519 37.0245 13.7675 36.285V39.8653C13.7675 40.1022 13.8629 40.316 14.0176 40.4707L15.8615 42.3037C16.4729 42.9128 17.2052 43.2209 18.0365 43.2209H20.0581C20.8894 43.2209 21.6204 42.9128 22.2319 42.3037L24.0746 40.4719C24.2304 40.3172 24.3271 40.1034 24.3271 39.8665V34.4315C24.5893 32.7072 25.7022 31.4082 26.9915 29.9062C28.1164 28.594 29.3272 27.1839 30.1404 25.3073C31.0986 26.0637 31.8985 27.0087 32.4822 28.0853C32.6114 28.3209 32.8434 28.484 33.1117 28.5239C33.3775 28.5614 33.647 28.4732 33.8391 28.2822C35.7882 26.3441 38.374 25.2771 41.1241 25.2771C46.697 25.2771 51.3261 29.7999 51.4457 35.3595C51.4566 35.7981 51.7974 36.1582 52.2348 36.1932C57.4475 36.5992 61.5317 41.0072 61.5317 46.2296ZM49.6779 20.7688C50.6084 19.8408 51.8421 19.3309 53.1555 19.3309C54.469 19.3309 55.7051 19.842 56.6331 20.7688C58.5507 22.684 58.5507 25.8003 56.6331 27.7143C55.1324 29.2139 52.8148 29.5752 50.9346 28.6254C50.5238 28.0502 50.0598 27.5089 49.5462 27.0062C49.2586 26.7247 48.9614 26.4625 48.6521 26.2124C47.8449 24.366 48.2436 22.2007 49.6779 20.7688ZM65.9699 25.5575L64.0837 25.6167C63.5992 25.6324 63.1907 25.9574 63.0711 26.4262C62.8319 27.3675 62.4585 28.269 61.9619 29.1015C61.7141 29.5184 61.7709 30.0355 62.1032 30.3896L63.3949 31.7622L61.0375 34.1161L59.6636 32.8256C59.3096 32.4945 58.7912 32.4365 58.3743 32.6842C57.5369 33.1796 56.6343 33.553 55.6918 33.7935C55.2206 33.9131 54.8943 34.3203 54.8798 34.806L54.875 34.968C54.3071 34.7952 53.721 34.6598 53.1169 34.574C53.0081 33.2509 52.6794 31.9749 52.1574 30.7799C52.4861 30.8282 52.8148 30.8572 53.1446 30.8572C54.8665 30.8572 56.5739 30.1914 57.8451 28.9215C60.4309 26.3405 60.4309 22.1415 57.8451 19.5605C56.5932 18.3099 54.9282 17.6211 53.1567 17.6211C51.3865 17.6211 49.7214 18.3099 48.4696 19.5605C47.0462 20.9803 46.3756 22.9366 46.5556 24.8615C44.8905 24.0192 43.0406 23.571 41.1229 23.571C40.8607 23.571 40.6009 23.5818 40.3436 23.5975V22.9245L42.2286 22.8677C42.7143 22.8532 43.1203 22.527 43.2411 22.0569C43.4816 21.1132 43.855 20.2106 44.3516 19.3768C44.5993 18.9587 44.5425 18.4428 44.209 18.0875L42.9173 16.7185L45.2724 14.3671L46.6438 15.6564C46.9979 15.9899 47.5162 16.0467 47.9343 15.799C48.7729 15.3023 49.6755 14.929 50.6192 14.6885C51.0893 14.5689 51.4167 14.1617 51.4324 13.6759L51.4892 11.7957H54.8218L54.8786 13.6759C54.8931 14.1629 55.2194 14.5689 55.6906 14.6885C56.6343 14.929 57.5369 15.3023 58.3743 15.7977C58.7924 16.0455 59.3096 15.9887 59.6636 15.6564L61.0375 14.3671L63.3949 16.7197L62.1032 18.0936C61.7709 18.4464 61.7154 18.9648 61.9619 19.3805C62.4585 20.2154 62.8319 21.1156 63.0711 22.0569C63.1907 22.527 63.5967 22.8532 64.0837 22.8677L65.9699 22.9257V25.5575Z" fill="#0C6460"/>
</g>
</svg>
