<svg width="16" height="19" viewBox="0 0 16 19" fill="none" xmlns="http://www.w3.org/2000/svg">
<path d="M4.58828 18.0742C0.0179687 13.5391 0.0179687 6.12109 4.58828 1.58594C4.79922 1.375 5.08047 1.33984 5.32656 1.48047L7.61172 2.92188C7.7875 3.02734 7.89297 3.20312 7.89297 3.41406C7.89297 3.48438 7.89297 3.58984 7.85781 3.66016L6.69766 6.50781C6.62734 6.71875 6.41641 6.85938 6.13516 6.85938H6.1L4.13125 6.68359C3.39297 8.72266 3.39297 10.9727 4.13125 12.9766L6.1 12.8008H6.13516C6.41641 12.8008 6.62734 12.9414 6.69766 13.1523L7.85781 16C7.89297 16.0703 7.89297 16.1758 7.89297 16.2461C7.89297 16.457 7.7875 16.6328 7.61172 16.7383L5.32656 18.1797C5.22109 18.25 5.11562 18.25 5.01016 18.25C4.83437 18.25 4.69375 18.2148 4.58828 18.0742ZM9.86172 3.625C10.2484 4.32812 10.2484 5.20703 9.86172 5.91016C9.72109 6.15625 9.40469 6.19141 9.19375 6.01562L8.98281 5.80469C8.84219 5.66406 8.80703 5.45312 8.9125 5.27734C8.98281 5.13672 9.01797 4.96094 9.01797 4.78516C9.01797 4.57422 8.98281 4.39844 8.9125 4.25781C8.80703 4.08203 8.84219 3.87109 8.98281 3.73047L9.19375 3.51953C9.40469 3.34375 9.72109 3.37891 9.86172 3.625ZM13.0609 0.425781C15.2055 2.92188 15.2055 6.61328 13.0609 9.10938C12.9203 9.32031 12.6391 9.32031 12.4633 9.14453L12.2523 8.96875C12.1117 8.79297 12.0766 8.54688 12.2172 8.37109C13.975 6.29688 13.975 3.23828 12.2172 1.16406C12.0766 0.988281 12.1117 0.742188 12.2523 0.566406L12.4633 0.390625C12.6391 0.214844 12.9203 0.214844 13.0609 0.425781ZM11.4437 2.00781C12.7094 3.625 12.7445 5.91016 11.4437 7.52734C11.3031 7.73828 11.0219 7.77344 10.8461 7.59766L10.6352 7.38672C10.4594 7.24609 10.4594 7 10.5648 6.82422C11.5141 5.62891 11.5141 3.90625 10.5648 2.71094C10.4594 2.53516 10.4594 2.28906 10.6352 2.14844L10.8461 1.9375C11.0219 1.76172 11.3031 1.79688 11.4437 2.00781Z" fill="#0C6460"/>
</svg>
