<svg width="51" height="45" viewBox="0 0 51 45" fill="none" xmlns="http://www.w3.org/2000/svg">
<path d="M36.731 27.7734L38.4885 26.0156C38.6642 25.8398 38.8546 25.7959 39.0597 25.8838C39.2647 25.9717 39.3672 26.1328 39.3672 26.3672V40.7812C39.3672 41.9531 38.9571 42.9492 38.137 43.7695C37.3168 44.5898 36.3209 45 35.1493 45H4.21792C3.04627 45 2.05038 44.5898 1.23023 43.7695C0.410075 42.9492 0 41.9531 0 40.7812V9.84375C0 8.67188 0.410075 7.67578 1.23023 6.85547C2.05038 6.03516 3.04627 5.625 4.21792 5.625H29.8769C30.1112 5.625 30.2723 5.72754 30.3602 5.93262C30.4481 6.1377 30.4041 6.32812 30.2284 6.50391L28.4709 8.26172C28.4124 8.37891 28.2952 8.4375 28.1194 8.4375H4.21792C3.80784 8.4375 3.47099 8.56934 3.20737 8.83301C2.94375 9.09668 2.81194 9.43359 2.81194 9.84375V40.7812C2.81194 41.1914 2.94375 41.5283 3.20737 41.792C3.47099 42.0557 3.80784 42.1875 4.21792 42.1875H35.1493C35.5594 42.1875 35.8962 42.0557 36.1598 41.792C36.4235 41.5283 36.5553 41.1914 36.5553 40.7812V28.125C36.5553 27.9492 36.6139 27.832 36.731 27.7734ZM49.5605 10.8984L22.0562 38.4082L13.2689 39.375C12.683 39.4336 12.1851 39.2578 11.775 38.8477C11.3649 38.4375 11.1892 37.9395 11.2478 37.3535L12.2144 28.5645L39.7187 1.05469C40.4217 0.351562 41.2858 0 42.311 0C43.3362 0 44.2002 0.351562 44.9032 1.05469L49.5605 5.71289C50.2635 6.41602 50.615 7.28027 50.615 8.30566C50.615 9.33105 50.2635 10.1953 49.5605 10.8984ZM41.3004 15.2051L35.4129 9.31641L14.9385 29.8828L14.2355 36.4746L20.826 35.6836L41.3004 15.2051ZM47.5394 7.73438L42.8821 3.07617C42.4721 2.66602 42.062 2.66602 41.6519 3.07617L37.434 7.29492L43.3215 13.1836L47.5394 8.96484C47.9495 8.55469 47.9495 8.14453 47.5394 7.73438Z" fill="#0C6460"/>
</svg>
