<svg width="45" height="45" viewBox="0 0 45 45" fill="none" xmlns="http://www.w3.org/2000/svg">
<path d="M10.3711 24.4336L9.31641 23.3789C8.67188 22.7344 8.67188 22.0898 9.31641 21.4453L15.9082 14.8535C16.5527 14.209 17.1973 14.209 17.8418 14.8535L25.3125 22.3242L33.0469 14.5898L30.4102 12.041C29.7656 11.3965 29.6191 10.6348 29.9707 9.75586C30.3223 8.87695 30.9668 8.4375 31.9043 8.4375H40.7812C41.1914 8.4375 41.5283 8.56934 41.792 8.83301C42.0557 9.09668 42.1875 9.43359 42.1875 9.84375V18.7207C42.1875 19.6582 41.748 20.3027 40.8691 20.6543C39.9902 21.0059 39.2285 20.8594 38.584 20.2148L36.0352 17.5781L26.2793 27.334C25.6348 27.9785 24.9902 27.9785 24.3457 27.334L16.875 19.8633L12.3047 24.4336C11.6602 25.0781 11.0156 25.0781 10.3711 24.4336ZM43.5938 35.1562C44.0039 35.1562 44.3408 35.2881 44.6045 35.5518C44.8682 35.8154 45 36.1523 45 36.5625V37.9688C45 38.3789 44.8682 38.7158 44.6045 38.9795C44.3408 39.2432 44.0039 39.375 43.5938 39.375H2.8125C2.05078 39.375 1.3916 39.0967 0.834961 38.54C0.27832 37.9834 0 37.3242 0 36.5625V7.03125C0 6.62109 0.131836 6.28418 0.395508 6.02051C0.65918 5.75684 0.996094 5.625 1.40625 5.625H2.8125C3.22266 5.625 3.55957 5.75684 3.82324 6.02051C4.08691 6.28418 4.21875 6.62109 4.21875 7.03125V35.1562H43.5938Z" fill="#0C6460"/>
</svg>
