<svg width="61" height="61" viewBox="0 0 61 61" fill="none" xmlns="http://www.w3.org/2000/svg">
<mask id="mask0_620_1026" style="mask-type:luminance" maskUnits="userSpaceOnUse" x="21" y="0" width="19" height="18">
<path d="M21.0625 0H39.3132V17.9256H21.0625V0Z" fill="white"/>
</mask>
<g mask="url(#mask0_620_1026)">
<path d="M23.828 15.2818L23.8751 15.3289C25.4762 16.93 27.6898 17.9196 30.1379 17.9196C32.5872 17.9196 34.7997 16.93 36.4007 15.3289L36.4478 15.2818L36.4949 15.2347C38.096 13.6336 39.0856 11.4212 39.0856 8.97189C39.0856 6.52381 38.096 4.31014 36.4949 2.7091L36.4478 2.66197L36.4007 2.61485C34.7997 1.01381 32.5872 0.0253906 30.1379 0.0253906C27.6898 0.0253906 25.4762 1.01381 23.8751 2.61485L23.828 2.66197L23.7809 2.7091C22.1798 4.31014 21.1914 6.52381 21.1914 8.97189C21.1914 11.4212 22.1798 13.6336 23.7809 15.2347C23.7809 15.2347 23.7809 15.2818 23.828 15.2818ZM24.0165 8.0306H23.1223C23.3096 6.80656 23.7809 5.62843 24.4877 4.68714L25.0992 5.29977C25.2877 5.48706 25.5233 5.58131 25.7589 5.58131C25.9945 5.58131 26.2302 5.48706 26.4187 5.29977C26.7944 4.92277 26.7944 4.35727 26.4187 3.98027L25.806 3.36885C26.7473 2.66197 27.8783 2.1436 29.1495 2.00343V2.85047C29.1495 3.36885 29.5736 3.79177 30.0908 3.79177C30.6092 3.79177 31.0333 3.36885 31.0333 2.85047V1.95631C32.2573 2.1436 33.4342 2.61485 34.3767 3.32172L33.7641 3.93314C33.3871 4.31014 33.3871 4.87564 33.7641 5.25264C33.9526 5.43993 34.1882 5.53418 34.4227 5.53418C34.6583 5.53418 34.8939 5.43993 35.0824 5.25264L35.695 4.64002C36.4007 5.58131 36.9191 6.71231 37.0604 7.98347H36.2593C35.7422 7.98347 35.318 8.4076 35.318 8.92477C35.318 9.44314 35.7422 9.86727 36.2593 9.86727H37.1547C36.9662 11.0913 36.4949 12.2682 35.7893 13.2107L35.1767 12.5981C34.7997 12.2211 34.2354 12.2211 33.8584 12.5981C33.4814 12.9751 33.4814 13.5394 33.8584 13.9164L34.4698 14.529C33.5285 15.2347 32.3987 15.7531 31.1275 15.8944V15.0933C31.1275 14.5761 30.7034 14.152 30.185 14.152C29.6667 14.152 29.2437 14.5761 29.2437 15.0933V15.9887C28.0197 15.8002 26.8416 15.3289 25.9003 14.6233L26.5117 14.0106C26.8887 13.6336 26.8887 13.0694 26.5117 12.6923C26.1359 12.3153 25.5704 12.3153 25.1934 12.6923L24.582 13.305C23.8751 12.3625 23.3567 11.2327 23.2166 9.96152H24.0165C24.5349 9.96152 24.9578 9.53739 24.9578 9.01902C24.9578 8.50185 24.5349 8.0306 24.0165 8.0306Z" fill="#0C6460"/>
</g>
<path d="M27.7823 9.912H30.1362C30.6546 9.912 31.0787 9.48787 31.0787 8.9695V6.14442C31.0787 5.62604 30.6546 5.20312 30.1362 5.20312C29.619 5.20312 29.1949 5.62604 29.1949 6.14442V8.02821H27.7823C27.264 8.02821 26.8398 8.45233 26.8398 8.9695C26.8398 9.48787 27.264 9.912 27.7823 9.912Z" fill="#0C6460"/>
<mask id="mask1_620_1026" style="mask-type:luminance" maskUnits="userSpaceOnUse" x="0" y="20" width="22" height="22">
<path d="M0 20.0879H21.0588V41.1226H0V20.0879Z" fill="white"/>
</mask>
<g mask="url(#mask1_620_1026)">
<path d="M1.31829 33.408C1.50679 33.9735 1.74242 34.5378 2.02517 35.1033C1.74242 35.9032 1.88379 36.8457 2.54233 37.4571L3.57908 38.4939C4.00321 38.9168 4.5675 39.1524 5.18013 39.1524C5.46288 39.1524 5.69729 39.1053 5.98004 39.011C6.49842 39.2938 7.06392 39.5294 7.67533 39.7179C8.05233 40.4719 8.80633 41.0362 9.7005 41.0362H11.1602C12.0543 41.0362 12.8555 40.5178 13.1853 39.7179C13.7496 39.5294 14.3151 39.2938 14.8806 39.011C15.1163 39.1053 15.3978 39.1524 15.6805 39.1524C16.2932 39.1524 16.8575 38.9168 17.2816 38.4939L18.3183 37.4571C18.9769 36.7986 19.1183 35.9032 18.8355 35.1033C19.1183 34.5849 19.3539 34.0206 19.5424 33.408C20.2952 33.031 20.8607 32.2782 20.8607 31.3828V29.9232C20.8607 29.029 20.3423 28.2279 19.5424 27.898C19.3539 27.3337 19.1183 26.7682 18.8355 26.2027C18.9298 25.9683 18.9769 25.6855 18.9769 25.4028C18.9769 24.7902 18.7413 24.2259 18.3183 23.8017L17.2816 22.7662C16.8575 22.3421 16.2932 22.1064 15.6805 22.1064C15.3978 22.1064 15.1634 22.1536 14.8806 22.2478C14.3623 21.9651 13.7968 21.7294 13.1853 21.5409C12.8083 20.7882 12.0543 20.2227 11.1602 20.2227H9.7005C8.80633 20.2227 8.00521 20.741 7.67533 21.5409C7.11104 21.7294 6.54554 21.9651 5.98004 22.2478C5.65017 22.2007 5.41575 22.1536 5.133 22.1536C4.52038 22.1536 3.95608 22.3892 3.53196 22.8133L2.49521 23.8489C2.11942 24.2259 1.88379 24.7902 1.88379 25.4028C1.88379 25.6855 1.93092 25.9212 2.02517 26.2027C1.74242 26.7211 1.50679 27.2866 1.31829 27.898C0.518375 28.2279 0 28.9819 0 29.9232V31.3828C0 32.2782 0.518375 33.031 1.31829 33.408ZM1.88379 29.9232C1.88379 29.7347 2.02517 29.5462 2.26079 29.5462H2.87221C3.06071 28.275 3.57908 27.0981 4.28475 26.1097L3.86183 25.6855C3.72046 25.5442 3.72046 25.3085 3.86183 25.1672L4.89738 24.1316C4.9445 24.0845 5.03875 24.0374 5.133 24.0374C5.22725 24.0374 5.3215 24.0845 5.36863 24.1316L5.79154 24.5545C6.78117 23.8017 7.95808 23.3305 9.22925 23.142V22.5306C9.22925 22.3421 9.37063 22.1536 9.60625 22.1536H11.0659C11.2544 22.1536 11.4429 22.2949 11.4429 22.5306V23.142C12.7141 23.3305 13.891 23.8489 14.8806 24.5545L15.3035 24.1316C15.3507 24.0845 15.4449 24.0374 15.5392 24.0374C15.6334 24.0374 15.7277 24.0845 15.7748 24.1316L16.8115 25.1672C16.9517 25.3085 16.9517 25.5442 16.8115 25.6855L16.3874 26.1097C17.1402 27.0981 17.6115 28.275 17.8 29.5462H18.4126C18.5999 29.5462 18.7884 29.6875 18.7884 29.9232V31.3828C18.7884 31.5713 18.647 31.7598 18.4126 31.7598H17.8C17.6115 33.031 17.0931 34.2079 16.3874 35.1975L16.8115 35.6217C16.9517 35.7618 16.9517 35.9974 16.8115 36.1388L15.7748 37.1756C15.7748 37.2227 15.6805 37.2227 15.5863 37.2227C15.492 37.2227 15.3978 37.1756 15.3507 37.1284L14.9278 36.7043C13.9381 37.4571 12.7612 37.9284 11.49 38.1169V38.7295C11.49 38.9168 11.3487 39.1053 11.113 39.1053H9.65338C9.46488 39.1053 9.27638 38.9639 9.27638 38.7295V38.1169C8.00521 37.9284 6.82829 37.41 5.83867 36.7043L5.41575 37.1284C5.3215 37.2227 5.22725 37.2227 5.133 37.2227C5.03875 37.2227 4.9445 37.1756 4.89738 37.1284L3.86183 36.0917C3.72046 35.9503 3.72046 35.7147 3.86183 35.5745L4.28475 35.1504C3.53196 34.1608 3.06071 32.9839 2.87221 31.7127H2.26079C2.02517 31.7127 1.88379 31.5713 1.88379 31.3357V29.9232Z" fill="#0C6460"/>
</g>
<path d="M10.3584 36.282C13.4662 36.282 16.0086 33.7397 16.0086 30.6318C16.0086 27.524 13.4662 24.9805 10.3584 24.9805C7.24936 24.9805 4.70703 27.524 4.70703 30.6318C4.70703 33.7397 7.24936 36.282 10.3584 36.282ZM10.3584 26.8643C12.4295 26.8643 14.1248 28.5596 14.1248 30.6318C14.1248 32.7029 12.4295 34.3982 10.3584 34.3982C8.28612 34.3982 6.59082 32.7029 6.59082 30.6318C6.59082 28.5596 8.28612 26.8643 10.3584 26.8643Z" fill="#0C6460"/>
<path d="M48.5469 17.9177H50.7594C48.4056 14.0088 45.015 10.8067 40.9175 8.73438C40.9175 8.82863 40.9175 8.87575 40.9175 8.97C40.9175 9.58263 40.8704 10.194 40.7773 10.7595C43.9323 12.502 46.616 14.95 48.5469 17.9177Z" fill="#0C6460"/>
<mask id="mask2_620_1026" style="mask-type:luminance" maskUnits="userSpaceOnUse" x="41" y="19" width="20" height="23">
<path d="M41.1602 19.7832H60.2687V41.7459H41.1602V19.7832Z" fill="white"/>
</mask>
<g mask="url(#mask2_620_1026)">
<path d="M57.4479 21.6865H55.517C55.2814 20.6039 54.3401 19.8027 53.2103 19.8027H48.5014C47.3704 19.8027 46.4291 20.6039 46.1935 21.6865H44.2626C42.7087 21.6865 41.4375 22.9577 41.4375 24.5128V38.6394C41.4375 40.1934 42.7087 41.4645 44.2626 41.4645H57.4479C59.0018 41.4645 60.273 40.1934 60.273 38.6394V24.5128C60.273 22.9577 59.0018 21.6865 57.4479 21.6865ZM48.0302 22.1578C48.0302 21.875 48.2187 21.6865 48.5014 21.6865H53.2103C53.493 21.6865 53.6803 21.875 53.6803 22.1578V23.0991C53.6803 23.3818 53.493 23.5703 53.2103 23.5703H48.5014C48.2187 23.5703 48.0302 23.3818 48.0302 23.0991V22.1578ZM58.3904 38.6394C58.3904 39.1566 57.9663 39.5807 57.4479 39.5807H44.2626C43.7454 39.5807 43.3213 39.1566 43.3213 38.6394V24.5128C43.3213 23.9944 43.7454 23.5703 44.2626 23.5703H46.1935C46.4291 24.653 47.3704 25.4541 48.5014 25.4541H53.2103C54.3401 25.4541 55.2814 24.653 55.517 23.5703H57.4479C57.9663 23.5703 58.3904 23.9944 58.3904 24.5128V38.6394Z" fill="#0C6460"/>
</g>
<path d="M54.621 27.3359H47.087C46.5687 27.3359 46.1445 27.7589 46.1445 28.2772C46.1445 28.7956 46.5687 29.2197 47.087 29.2197H54.621C55.1394 29.2197 55.5623 28.7956 55.5623 28.2772C55.5623 27.7589 55.1394 27.3359 54.621 27.3359Z" fill="#0C6460"/>
<path d="M54.621 31.1016H47.087C46.5687 31.1016 46.1445 31.5257 46.1445 32.0441C46.1445 32.5612 46.5687 32.9854 47.087 32.9854H54.621C55.1394 32.9854 55.5623 32.5612 55.5623 32.0441C55.5623 31.5257 55.1394 31.1016 54.621 31.1016Z" fill="#0C6460"/>
<path d="M54.621 34.8691H47.087C46.5687 34.8691 46.1445 35.2933 46.1445 35.8104C46.1445 36.3288 46.5687 36.7529 47.087 36.7529H54.621C55.1394 36.7529 55.5623 36.3288 55.5623 35.8104C55.5623 35.2933 55.1394 34.8691 54.621 34.8691Z" fill="#0C6460"/>
<path d="M11.0635 18.3877C11.1577 18.3877 11.252 18.3877 11.3462 18.3877C13.3243 15.2328 16.1022 12.5962 19.3986 10.7595C19.3514 10.194 19.3043 9.58263 19.3043 8.97C19.3043 8.87575 19.3043 8.82863 19.3043 8.73438C15.0667 10.9009 11.5347 14.2915 9.17969 18.4349C9.32106 18.4349 9.46244 18.3877 9.60381 18.3877H11.0635Z" fill="#0C6460"/>
<mask id="mask3_620_1026" style="mask-type:luminance" maskUnits="userSpaceOnUse" x="9" y="24" width="42" height="37">
<path d="M9.61328 24.4219H50.4453V60.2755H9.61328V24.4219Z" fill="white"/>
</mask>
<g mask="url(#mask3_620_1026)">
<path d="M50.1963 43.3453H47.9355C46.4287 45.4163 44.5449 47.1588 42.3796 48.6184C41.0601 48.0541 39.6946 47.4415 38.6591 47.0174C38.0465 46.7359 37.5764 46.5473 37.2466 46.406L36.4454 43.8153C38.3763 41.3672 39.5533 37.9295 39.5533 34.7746C39.5533 29.1244 35.5513 24.5098 30.6068 24.5098C25.6623 24.5098 21.6591 29.1244 21.6591 34.7746C21.6591 37.9295 22.8372 41.3672 24.7681 43.8153L23.967 46.3589C23.6842 46.5002 23.1671 46.6887 22.5544 46.9703C21.3775 47.4886 19.7765 48.1955 18.2697 48.8069C15.7733 47.2059 13.6079 45.1819 11.9598 42.7326C11.677 42.7798 11.3943 42.8269 11.0644 42.8269H9.74609C11.4414 45.5106 13.6079 47.8185 16.1974 49.6552C15.0676 50.1252 14.2193 50.5022 14.078 50.5494C13.7952 50.6436 13.5608 50.8792 13.5137 51.162L11.3 59.0258C11.2058 59.3086 11.3 59.6384 11.4414 59.8729C11.5828 60.1085 11.9126 60.2499 12.1942 60.2499H48.9239C49.2066 60.2499 49.4894 60.1085 49.6779 59.8729C49.8664 59.6384 49.9135 59.3557 49.8193 59.0258L47.6056 51.162C47.5113 50.8792 47.3228 50.6436 47.0413 50.5494C46.8999 50.5022 45.7689 50.0322 44.3564 49.3724C46.6643 47.7714 48.6423 45.6991 50.1963 43.3453ZM23.5428 34.7746C23.5428 30.1599 26.6978 26.3923 30.6068 26.3923C34.5145 26.3923 37.6695 30.1599 37.6695 34.7746C37.6695 39.3892 34.5145 45.2291 30.6068 45.2291C26.6978 45.2291 23.5428 39.4363 23.5428 34.7746ZM45.9574 52.1975L47.6998 58.4132H13.4666L15.209 52.1975C16.056 51.8205 18.1283 50.9735 23.2601 48.7127C25.1439 47.9128 25.1439 47.8656 25.2853 47.8185C25.4266 47.6771 25.568 47.5358 25.6151 47.3473L26.2278 45.3692C27.4989 46.4531 29.0057 47.1116 30.5596 47.1116C32.1136 47.1116 33.6203 46.4531 34.8915 45.3692L35.5041 47.3473C35.5513 47.5358 35.6926 47.7243 35.834 47.8185C35.9283 47.9128 35.9754 47.9128 37.8108 48.7127C43.0381 50.9264 45.1104 51.8205 45.9574 52.1975Z" fill="#0C6460"/>
</g>
</svg>
