<svg width="47" height="53" viewBox="0 0 47 53" fill="currentColor" xmlns="http://www.w3.org/2000/svg">
<path d="M22.3717 2.00728V5.88152C22.3717 6.4551 22.8367 6.92005 23.4103 6.92005C23.9838 6.92005 24.4488 6.4551 24.4488 5.88152V2.00728C24.4488 1.4337 23.9838 0.96875 23.4103 0.96875C22.8367 0.96875 22.3717 1.4337 22.3717 2.00728ZM8.69523 6.69571L10.6321 10.0507C10.9188 10.5474 11.554 10.7176 12.0507 10.4309C12.5475 10.1441 12.7176 9.50896 12.4309 9.01222L10.494 5.65723C10.2073 5.16049 9.57215 4.99031 9.0754 5.27707C8.57865 5.56383 8.40847 6.19896 8.69523 6.69571ZM0.519465 16.7223L3.87445 18.6592C4.37119 18.9459 5.00633 18.7757 5.29309 18.279C5.57985 17.7822 5.40967 17.1471 4.91292 16.8603L1.55794 14.9235C1.06119 14.6367 0.426058 14.8069 0.139297 15.3037C-0.147465 15.8004 0.022716 16.4356 0.519465 16.7223ZM42.9459 18.6594L46.3009 16.7226C46.7977 16.4358 46.9679 15.8007 46.6811 15.3039C46.3943 14.8072 45.7592 14.637 45.2625 14.9238L41.9075 16.8606C41.4107 17.1474 41.2405 17.7825 41.5273 18.2792C41.8141 18.776 42.4492 18.9462 42.9459 18.6594ZM36.1882 10.0508L38.1251 6.69586C38.4118 6.19911 38.2416 5.56398 37.7449 5.27722C37.2481 4.99046 36.613 5.16064 36.3262 5.65739L34.3894 9.01237C34.1026 9.50912 34.2728 10.1443 34.7696 10.431C35.2663 10.7178 35.9015 10.5476 36.1882 10.0508ZM28.8287 31.8784C28.8287 31.7084 28.8704 31.541 28.9502 31.3908C29.0301 31.2407 29.1456 31.1125 29.2865 31.0174C32.0171 29.1759 33.6713 26.1859 33.6713 22.9294C33.6713 17.4837 29.0851 13.0541 23.4101 13.0541C17.7352 13.0541 13.1489 17.4837 13.1489 22.9294C13.1489 26.1859 14.8032 29.1759 17.5337 31.0174C17.6747 31.1125 17.7902 31.2407 17.87 31.3909C17.9498 31.541 17.9916 31.7084 17.9916 31.8784V41.1026C17.9916 42.2255 18.9016 43.1355 20.0245 43.1355H26.7962C27.9186 43.1355 28.8286 42.2255 28.8286 41.1026V31.8784H28.8287ZM30.9057 41.1027C30.9057 43.3726 29.0658 45.2127 26.7963 45.2127H20.0246C17.7546 45.2127 15.9146 43.3727 15.9146 41.1027V32.4155C12.8946 30.1753 11.0719 26.7028 11.0719 22.9295C11.0719 16.3201 16.6039 10.9771 23.4102 10.9771C30.2164 10.9771 35.7484 16.3201 35.7484 22.9295C35.7484 26.7028 33.9258 30.1754 30.9058 32.4155V41.1027H30.9057ZM18.2447 49.0946H28.5759C29.1495 49.0946 29.6145 48.6296 29.6145 48.056C29.6145 47.4825 29.1495 47.0175 28.5759 47.0175H18.2447C17.6711 47.0175 17.2061 47.4825 17.2061 48.056C17.2061 48.6296 17.6711 49.0946 18.2447 49.0946ZM19.5361 52.9688H27.2845C27.8581 52.9688 28.323 52.5038 28.323 51.9302C28.323 51.3566 27.8581 50.8917 27.2845 50.8917H19.5361C18.9625 50.8917 18.4976 51.3566 18.4976 51.9302C18.4976 52.5038 18.9625 52.9688 19.5361 52.9688Z"/>
</svg>