<svg width="57" height="57" viewBox="0 0 57 57" fill="none" xmlns="http://www.w3.org/2000/svg">
<mask id="mask0_620_1147" style="mask-type:luminance" maskUnits="userSpaceOnUse" x="0" y="0" width="57" height="57">
<path d="M0 0H56.8424V56.7965H0V0Z" fill="white"/>
</mask>
<g mask="url(#mask0_620_1147)">
<path d="M8.01602 22.8339C8.64918 23.7691 9.13856 24.598 9.65452 25.607C10.9523 28.1445 12.8675 29.5993 14.9108 29.5993C16.9528 29.5993 18.8693 28.1445 20.1658 25.6058C20.6806 24.6005 21.1699 23.7715 21.8043 22.8339C22.7806 21.3923 22.5716 19.4252 22.1934 18.4549C22.0883 18.1866 21.9131 18.0211 21.7971 17.9111C21.7898 17.9027 21.7789 17.893 21.7693 17.8833C21.5203 16.1433 20.6793 14.6873 19.3296 13.6699C18.1153 12.754 16.5456 12.2489 14.9096 12.2489C13.2735 12.2489 11.7038 12.7528 10.4883 13.6699C9.13856 14.6885 8.29756 16.1433 8.04864 17.8833C8.03897 17.893 8.02931 17.9027 8.02085 17.9111C7.90364 18.0223 7.72843 18.1878 7.62331 18.4561C7.24752 19.4252 7.03968 21.3923 8.01602 22.8339ZM8.93314 18.9974C8.94764 18.9805 8.97543 18.9563 8.99477 18.9358C9.13372 18.8065 9.38747 18.5636 9.44064 18.1588C9.84422 15.0522 12.4784 13.6614 14.9108 13.6614C17.3419 13.6614 19.9773 15.0522 20.3797 18.1588C20.4328 18.5636 20.6866 18.8065 20.8256 18.9358C20.8449 18.9563 20.8727 18.9805 20.8872 18.9974C21.1506 19.7019 21.2497 21.1325 20.6334 22.0412C19.964 23.0284 19.4481 23.902 18.9055 24.9618C17.8591 27.0099 16.4031 28.1856 14.9096 28.1856C13.4161 28.1856 11.96 27.0111 10.9124 24.963C10.3686 23.9008 9.85268 23.0272 9.18568 22.0424C8.57185 21.1325 8.66972 19.7031 8.93314 18.9974ZM43.5688 44.1827L32.2661 41.1558L27.6732 33.2038C27.649 33.1603 27.6176 33.1204 27.585 33.083C27.0086 32.4474 26.3102 31.9991 25.5066 31.7538L18.3098 29.5413C17.9811 29.4398 17.6283 29.5873 17.4724 29.8942C17.3588 30.0754 16.4598 30.5116 14.9108 30.5116C13.3629 30.5116 12.4627 30.0754 12.3527 29.8978C12.1968 29.5909 11.8428 29.4398 11.5141 29.5413L4.31489 31.7538C3.51135 31.9991 2.81293 32.4474 2.23656 33.083C2.14714 33.1808 2.08672 33.3053 2.06377 33.437L0.106266 44.7337C-0.172859 46.3468 0.166683 47.8415 1.11643 49.1804L6.38718 56.5017C6.5201 56.6865 6.73277 56.7953 6.96114 56.7953H7.0131C7.01793 56.7953 7.02156 56.7965 7.02639 56.7965C7.03485 56.7965 7.04452 56.7953 7.05418 56.7953L22.7927 56.7965C23.1552 56.7965 23.4597 56.5222 23.496 56.1621L24.807 43.349L26.0588 45.5179C26.8733 46.928 28.084 47.8573 29.6573 48.279L41.6125 51.481C43.5773 52.0079 45.6048 50.8382 46.1317 48.8723L46.1776 48.7007C46.4313 47.7509 46.2996 46.7577 45.8066 45.9034C45.3136 45.0479 44.5173 44.4377 43.5688 44.1827ZM22.3746 32.271L19.4251 42.2433L15.9487 40.6483L21.5385 32.0136L22.3746 32.271ZM14.9108 31.9254C16.0889 31.9254 17.5558 31.6801 18.3303 31.0276L20.132 31.581L14.9108 39.649L9.68835 31.581L11.49 31.0276C12.2657 31.6801 13.7314 31.9254 14.9108 31.9254ZM13.8728 40.6483L10.3964 42.2433L7.44689 32.271L8.28427 32.0136L13.8728 40.6483ZM1.49947 44.9754L3.41952 33.8913C3.79652 33.5168 4.22789 33.2606 4.72935 33.1059L6.09356 32.6866L9.27147 43.4275C9.32947 43.6245 9.47085 43.7852 9.65693 43.8698C9.74997 43.9133 9.85027 43.9338 9.94935 43.9338C10.0496 43.9338 10.1499 43.9133 10.2442 43.8698L14.2015 42.0536V55.3828H7.6656L6.19989 41.0302C6.15881 40.6411 5.81443 40.3583 5.42414 40.3994C5.03506 40.4393 4.75231 40.7849 4.79218 41.174L6.06577 53.6355L2.26677 48.3575C1.53452 47.328 1.28439 46.2212 1.49947 44.9754ZM44.811 48.3345L44.7651 48.5061C44.4412 49.7169 43.1906 50.4383 41.9786 50.1144L30.0222 46.9111C28.8078 46.5861 27.9112 45.8985 27.2829 44.811L24.9375 40.7486C24.7841 40.484 24.4771 40.3475 24.1775 40.4103C23.8778 40.4743 23.6531 40.7257 23.6216 41.0302L22.1535 55.3828H15.6176V42.0536L19.5761 43.8698C19.6692 43.912 19.7707 43.9338 19.8698 43.9338C19.9701 43.9338 20.0691 43.9133 20.1622 43.8698C20.3483 43.7852 20.4908 43.6245 20.5476 43.4275L23.7256 32.6866L25.0898 33.1059C25.6323 33.2727 26.0891 33.559 26.4866 33.9808L31.1846 42.1165C31.2788 42.2796 31.4335 42.398 31.6136 42.4463L43.2003 45.5505C43.7839 45.7076 44.2745 46.0846 44.579 46.6115C44.8871 47.1371 44.9681 47.7497 44.811 48.3345ZM53.9544 28.5855C52.1999 27.4594 49.8799 26.8395 47.4234 26.8395C44.9668 26.8395 42.6468 27.4594 40.8923 28.5855C39.04 29.7745 38.0189 31.3865 38.0189 33.1277C38.0189 35.0791 39.3505 36.9013 41.6065 38.0818L41.1328 40.971C41.0857 41.2477 41.2101 41.5256 41.4458 41.679C41.563 41.754 41.6971 41.7914 41.83 41.7914C41.9653 41.7914 42.1019 41.7528 42.2203 41.6742L45.7813 39.3192C46.3214 39.382 46.8712 39.4134 47.4234 39.4134C49.8799 39.4134 52.1999 38.7935 53.9544 37.6674C55.8068 36.4784 56.8266 34.8665 56.8266 33.1265C56.8266 31.3853 55.808 29.7733 53.9544 28.5855ZM53.1908 36.4772C51.661 37.4583 49.6117 37.9997 47.4234 37.9997C46.8446 37.9997 46.2658 37.961 45.7051 37.8837C45.5348 37.8619 45.362 37.9006 45.2194 37.9948L42.7894 39.6007L43.0867 37.7906C43.1386 37.4765 42.9719 37.1659 42.6819 37.033C40.6483 36.105 39.4327 34.6441 39.4327 33.1253C39.4327 31.8831 40.2205 30.6929 41.6548 29.7733C43.1846 28.7922 45.2327 28.2508 47.4222 28.2508C49.6105 28.2508 51.6598 28.7922 53.1896 29.7733C54.6226 30.6929 55.4117 31.8831 55.4117 33.1253C55.4117 34.3674 54.6238 35.5576 53.1908 36.4772ZM46.7141 31.7369C46.7141 32.1139 47.0319 32.4208 47.4234 32.4208C48.5943 32.4208 49.5476 33.3609 49.5476 34.5173C49.5476 35.4283 48.9543 36.2041 48.1303 36.4929V36.6173C48.1303 37.0076 47.8137 37.3242 47.4234 37.3242C47.0331 37.3242 46.7153 37.0076 46.7153 36.6173V36.4929C45.8924 36.2041 45.2991 35.4283 45.2991 34.5173C45.2991 34.1282 45.6157 33.8104 46.006 33.8104C46.3963 33.8104 46.7141 34.1282 46.7141 34.5173C46.7141 34.8943 47.0319 35.2012 47.4234 35.2012C47.8149 35.2012 48.1327 34.8943 48.1327 34.5173C48.1327 34.1403 47.8149 33.8345 47.4234 33.8345C46.2513 33.8345 45.2991 32.8945 45.2991 31.7369C45.2991 30.8258 45.8924 30.05 46.7153 29.7613V29.6368C46.7153 29.2465 47.0331 28.9299 47.4234 28.9299C47.8137 28.9299 48.1303 29.2465 48.1303 29.6368V29.7613C48.9543 30.05 49.5476 30.8258 49.5476 31.7369C49.5476 32.1272 49.2298 32.4438 48.8396 32.4438C48.4493 32.4438 48.1327 32.1272 48.1327 31.7369C48.1327 31.3599 47.8149 31.053 47.4234 31.053C47.0319 31.053 46.7141 31.3599 46.7141 31.7369ZM22.8374 9.87088L22.4387 12.3008C22.3928 12.5775 22.516 12.8555 22.7528 13.0089C22.8688 13.085 23.003 13.1225 23.1371 13.1225C23.2724 13.1225 23.409 13.0838 23.5262 13.0041L26.5772 10.9886C27.0364 11.0405 27.5052 11.0659 27.9728 11.0659C30.1152 11.0659 32.1392 10.5234 33.6738 9.53979C35.3038 8.49338 36.2016 7.06996 36.2016 5.53175C36.2016 3.99475 35.3038 2.57133 33.6738 1.52492C32.1392 0.542542 30.1152 0 27.9728 0C25.8305 0 23.8065 0.542542 22.2731 1.52613C20.6419 2.57254 19.7441 3.99596 19.7441 5.53296C19.7453 7.23913 20.8896 8.83171 22.8374 9.87088ZM27.9728 1.41375C31.6655 1.41375 34.7854 3.29996 34.7854 5.53296C34.7854 7.76596 31.6655 9.65338 27.9728 9.65338C27.4762 9.65338 26.9808 9.61954 26.4999 9.55429C26.3283 9.53013 26.1567 9.57 26.0141 9.66425L24.0965 10.933L24.3176 9.58329C24.3696 9.26913 24.2028 8.95738 23.9128 8.82567C22.1886 8.03904 21.1603 6.80896 21.1603 5.53296C21.1603 3.29996 24.2802 1.41375 27.9728 1.41375ZM30.1636 5.53296C30.1636 5.14388 30.4813 4.82608 30.8716 4.82608H31.5942C31.9845 4.82608 32.3011 5.14388 32.3011 5.53296C32.3011 5.92325 31.9845 6.24104 31.5942 6.24104H30.8716C30.4801 6.24104 30.1636 5.92325 30.1636 5.53296ZM26.9035 5.53296C26.9035 5.14388 27.2213 4.82608 27.6116 4.82608H28.3341C28.7232 4.82608 29.041 5.14388 29.041 5.53296C29.041 5.92325 28.7232 6.24104 28.3341 6.24104H27.6116C27.2213 6.24104 26.9035 5.92325 26.9035 5.53296ZM23.6446 5.53296C23.6446 5.14388 23.9612 4.82608 24.3515 4.82608H25.0741C25.4643 4.82608 25.7821 5.14388 25.7821 5.53296C25.7821 5.92325 25.4643 6.24104 25.0741 6.24104H24.3515C23.9612 6.24104 23.6446 5.92325 23.6446 5.53296ZM32.3156 16.3717C32.3156 18.9165 34.0943 21.2993 37.103 22.8242L36.4469 26.825C36.401 27.1017 36.5242 27.3808 36.7598 27.5331C36.8771 27.6092 37.0112 27.6467 37.1441 27.6467C37.2806 27.6467 37.4172 27.608 37.5344 27.5283L42.3351 24.3552C43.0686 24.4434 43.8201 24.4881 44.5717 24.4881C47.7895 24.4881 50.8261 23.6785 53.1195 22.2068C55.5108 20.6722 56.8278 18.5987 56.8278 16.3705C56.8278 14.1423 55.512 12.07 53.1195 10.5355C50.8261 9.06371 47.7907 8.25292 44.5717 8.25292C41.3527 8.25292 38.3174 9.06371 36.024 10.5355C33.6315 12.0713 32.3156 14.1435 32.3156 16.3717ZM44.5717 9.66788C47.5237 9.66788 50.2871 10.3989 52.3558 11.7269C54.3278 12.992 55.4141 14.6426 55.4141 16.3717C55.4141 18.102 54.3278 19.7514 52.3558 21.0178C50.2871 22.3457 47.5237 23.0755 44.5717 23.0755C43.7923 23.0755 43.0142 23.0236 42.259 22.9209C42.0898 22.8979 41.9158 22.9378 41.7732 23.032L38.1047 25.4572L38.5856 22.5306C38.6376 22.2152 38.4721 21.9047 38.1821 21.773C35.3956 20.5006 33.7306 18.4827 33.7306 16.3717C33.7306 14.6426 34.8168 12.992 36.7888 11.7269C38.8563 10.4001 41.6198 9.66788 44.5717 9.66788ZM38.2437 19.6221V13.1237C38.2437 12.7334 38.5603 12.4168 38.9506 12.4168C39.3408 12.4168 39.6574 12.7334 39.6574 13.1237V18.9153H41.766V16.8623C41.766 16.472 42.0838 16.1554 42.4741 16.1554C42.8643 16.1554 43.1809 16.472 43.1809 16.8623V18.9153H44.7022V15.6491C44.7022 15.2588 45.02 14.941 45.4103 14.941C45.8006 14.941 46.1172 15.2588 46.1172 15.6491V18.9153H47.6385V14.4348C47.6385 14.0445 47.9563 13.7279 48.3466 13.7279C48.7356 13.7279 49.0534 14.0445 49.0534 14.4348V18.9153H50.1917C50.582 18.9153 50.8998 19.2318 50.8998 19.6221C50.8998 20.0124 50.582 20.329 50.1917 20.329H38.9506C38.5603 20.329 38.2437 20.0124 38.2437 19.6221Z" fill="#0C6460"/>
</g>
</svg>
