<svg width="52" height="65" viewBox="0 0 52 65" fill="none" xmlns="http://www.w3.org/2000/svg">
<path d="M23.0376 42.9733C23.1391 43.0748 23.2564 43.1522 23.3893 43.2077C23.521 43.2621 23.6599 43.2899 23.8025 43.2899C23.9463 43.2899 24.0841 43.2621 24.217 43.2077C24.3499 43.1522 24.4671 43.0748 24.5674 42.9733L39.7139 27.8522C39.8154 27.7507 39.8939 27.6335 39.9483 27.5018C40.0039 27.3689 40.0304 27.2312 40.0304 27.0886C40.0304 26.9448 40.0039 26.807 39.9483 26.6753C39.8939 26.5424 39.8154 26.4252 39.7139 26.3249L36.4683 23.0842C36.3668 22.9827 36.2496 22.9053 36.1179 22.8497C35.9849 22.7954 35.8472 22.7676 35.7034 22.7676C35.5596 22.7676 35.4219 22.7954 35.2889 22.8497C35.1572 22.9053 35.04 22.9827 34.9385 23.0842L23.8025 34.202L20.2404 30.6447C20.1389 30.5432 20.0216 30.4659 19.8899 30.4103C19.757 30.3559 19.6193 30.3281 19.4755 30.3281C19.3317 30.3281 19.1939 30.3559 19.061 30.4103C18.9293 30.4659 18.8121 30.5432 18.7106 30.6447L15.465 33.8855C15.3635 33.987 15.285 34.103 15.2306 34.2359C15.175 34.3676 15.1484 34.5053 15.1484 34.6491C15.1484 34.7917 15.175 34.9295 15.2306 35.0624C15.285 35.1941 15.3635 35.3113 15.465 35.4128L23.0376 42.9733ZM19.4755 32.9357L23.0376 36.493C23.1391 36.5945 23.2564 36.6719 23.3893 36.7275C23.521 36.7818 23.6599 36.8096 23.8025 36.8096C23.9463 36.8096 24.0841 36.7818 24.217 36.7275C24.3499 36.6719 24.4671 36.5945 24.5674 36.493L35.7034 25.3752L37.4192 27.0886L23.8025 40.6823L17.7596 34.6491L19.4755 32.9357Z" fill="#0C6460"/>
<mask id="mask0_620_1079" style="mask-type:luminance" maskUnits="userSpaceOnUse" x="0" y="0" width="52" height="65">
<path d="M0 0H51.9293V64.9117H0V0Z" fill="white"/>
</mask>
<g mask="url(#mask0_620_1079)">
<path d="M12.7503 56.8716C19.1243 63.3736 25.468 64.8091 25.7351 64.8671C25.8885 64.9009 26.042 64.9009 26.1943 64.8671C26.4613 64.8091 32.805 63.3736 39.179 56.8716C42.8958 53.081 45.8538 48.3395 47.9708 42.78C50.5978 35.8804 51.9293 27.6939 51.9293 18.4478C51.9293 18.2701 51.8883 18.1034 51.8061 17.9475C51.7239 17.7904 51.6103 17.6611 51.4653 17.5609L26.5821 0.279271C26.4915 0.216438 26.3936 0.168104 26.2885 0.135479C26.1834 0.102854 26.0746 0.0859375 25.9647 0.0859375C25.8547 0.0859375 25.746 0.102854 25.6408 0.135479C25.5357 0.168104 25.4378 0.216438 25.3472 0.279271L0.464 17.5609C0.319 17.6611 0.205417 17.7904 0.12325 17.9475C0.0410833 18.1034 0 18.2701 0 18.4478C0 27.6939 1.33279 35.8804 3.9585 42.7788C6.0755 48.3395 9.0335 53.0798 12.7503 56.8716ZM25.9647 2.48206L49.764 19.0109C49.7108 27.7193 48.4409 35.4212 45.9855 41.9124C43.9918 47.1844 41.215 51.6745 37.7326 55.2584C32.4595 60.6839 27.1174 62.3804 25.9635 62.6969C24.8119 62.3852 19.5593 60.7286 14.297 55.3599C10.7892 51.7821 7.99192 47.2919 5.98125 42.0115C3.50175 35.4986 2.2185 27.7628 2.16533 19.0109L25.9647 2.48206Z" fill="#0C6460"/>
</g>
<path d="M16.139 52.5964C19.9042 56.6202 23.6669 58.4363 25.5737 59.1613C25.8323 59.2592 26.0897 59.2592 26.3482 59.1601C28.1571 58.4641 31.7265 56.7519 35.3129 53.0943C38.5053 49.8378 41.0621 45.721 42.9133 40.8599C45.0363 35.2834 46.235 28.6932 46.4742 21.2728C46.4803 21.0904 46.4416 20.9164 46.3595 20.7532C46.2773 20.5901 46.1613 20.456 46.0102 20.3509L26.5814 6.8574C26.4908 6.79456 26.3929 6.74744 26.2878 6.7136C26.1827 6.68098 26.0739 6.66406 25.964 6.66406C25.854 6.66406 25.7453 6.68098 25.6402 6.7136C25.535 6.74744 25.4372 6.79456 25.3465 6.8574L5.91774 20.3521C5.7667 20.456 5.6507 20.5901 5.56853 20.7532C5.48636 20.9176 5.4477 21.0904 5.45374 21.2728C5.68574 28.4745 6.82157 34.8992 8.82982 40.3657C10.6024 45.193 13.0614 49.3086 16.139 52.5964ZM25.964 9.06019L44.2908 21.7888C44.0165 28.7306 42.8734 34.8847 40.8917 40.0926C39.1469 44.6734 36.7496 48.5401 33.7662 51.5826C30.7091 54.7014 27.6919 56.2734 25.9567 56.9899C24.1334 56.2432 20.9458 54.5684 17.7195 51.1211C14.8413 48.0459 12.5334 44.1768 10.861 39.6226C8.9869 34.5186 7.90303 28.5216 7.6372 21.7888L25.964 9.06019Z" fill="#0C6460"/>
</svg>
