<svg width="57" height="31" viewBox="0 0 57 31" fill="none" xmlns="http://www.w3.org/2000/svg">
<path d="M10.8624 8.26325C8.79795 8.26325 7.1182 9.94424 7.1182 12.0111C7.1182 14.0768 8.79795 15.7578 10.8624 15.7578C12.928 15.7578 14.6078 14.0768 14.6078 12.0111C14.6078 9.94424 12.928 8.26325 10.8624 8.26325ZM10.8624 17.8667C7.63647 17.8667 5.01172 15.2395 5.01172 12.0111C5.01172 8.78153 7.63647 6.1543 10.8624 6.1543C14.0895 6.1543 16.7143 8.78153 16.7143 12.0111C16.7143 15.2395 14.0895 17.8667 10.8624 17.8667Z" fill="#0C6460"/>
<path d="M45.4964 8.26325C43.432 8.26325 41.7523 9.94424 41.7523 12.0111C41.7523 14.0768 43.432 15.7578 45.4964 15.7578C47.5609 15.7578 49.2406 14.0768 49.2406 12.0111C49.2406 9.94424 47.5609 8.26325 45.4964 8.26325ZM45.4964 17.8667C42.2693 17.8667 39.6445 15.2395 39.6445 12.0111C39.6445 8.78153 42.2693 6.1543 45.4964 6.1543C48.7223 6.1543 51.3483 8.78153 51.3483 12.0111C51.3483 15.2395 48.7223 17.8667 45.4964 17.8667Z" fill="#0C6460"/>
<mask id="mask0_620_1189" style="mask-type:luminance" maskUnits="userSpaceOnUse" x="19" y="0" width="19" height="18">
<path d="M19.0859 0H37.1351V17.907H19.0859V0Z" fill="white"/>
</mask>
<g mask="url(#mask0_620_1189)">
<path d="M28.1813 2.10896C24.4817 2.10896 21.471 5.12211 21.471 8.82546C21.471 12.5276 24.4817 15.5407 28.1813 15.5407C31.881 15.5407 34.8916 12.5276 34.8916 8.82546C34.8916 5.12211 31.881 2.10896 28.1813 2.10896ZM28.1813 17.6497C23.319 17.6497 19.3633 13.6903 19.3633 8.82546C19.3633 3.9594 23.319 0 28.1813 0C33.0437 0 36.9994 3.9594 36.9994 8.82546C36.9994 13.6903 33.0437 17.6497 28.1813 17.6497Z" fill="#0C6460"/>
</g>
<mask id="mask1_620_1189" style="mask-type:luminance" maskUnits="userSpaceOnUse" x="36" y="19" width="21" height="12">
<path d="M36.8203 19.4922H56.3254V30.8917H36.8203V19.4922Z" fill="white"/>
</mask>
<g mask="url(#mask1_620_1189)">
<path d="M56.3221 30.6584H54.2143C54.2143 25.7033 50.1869 21.6734 45.2355 21.6734C42.6516 21.6734 40.1926 22.7879 38.4856 24.7336L36.9023 23.342C39.0088 20.9412 42.0455 19.5645 45.2355 19.5645C51.3484 19.5645 56.3221 24.5406 56.3221 30.6584Z" fill="#0C6460"/>
</g>
<mask id="mask2_620_1189" style="mask-type:luminance" maskUnits="userSpaceOnUse" x="0" y="19" width="20" height="12">
<path d="M0 19.4922H19.7166V30.8917H0V19.4922Z" fill="white"/>
</mask>
<g mask="url(#mask2_620_1189)">
<path d="M2.10772 30.6584H0C0 24.5406 4.97244 19.5645 11.0853 19.5645C14.2753 19.5645 17.3132 20.9412 19.4197 23.342L17.8352 24.7336C16.1295 22.7879 13.6693 21.6734 11.0853 21.6734C6.13515 21.6734 2.10772 25.7033 2.10772 30.6584Z" fill="#0C6460"/>
</g>
<mask id="mask3_620_1189" style="mask-type:luminance" maskUnits="userSpaceOnUse" x="13" y="19" width="31" height="13">
<path d="M13.0664 19.4922H43.4651V31.0018H13.0664V19.4922Z" fill="white"/>
</mask>
<g mask="url(#mask3_620_1189)">
<path d="M41.2673 30.9998C40.4497 28.6014 38.9827 26.4752 37.0259 24.8486C34.5607 22.8002 31.4375 21.6734 28.2289 21.6734C25.2751 21.6734 22.4599 22.5949 20.0862 24.339C17.7967 26.02 16.1033 28.3231 15.1905 30.9998L13.1953 30.317C14.2492 27.2322 16.201 24.5765 18.8382 22.6394C21.5767 20.627 24.8236 19.5645 28.2289 19.5645C31.9273 19.5645 35.5305 20.8645 38.3717 23.2258C40.6266 25.1009 42.3175 27.5525 43.2625 30.317L41.2673 30.9998Z" fill="#0C6460"/>
</g>
</svg>
