<svg width="54" height="46" viewBox="0 0 54 46" fill="none" xmlns="http://www.w3.org/2000/svg">
<path d="M11.7459 28.6564C12.076 28.6564 12.4035 28.6239 12.7284 28.559C13.052 28.494 13.3666 28.3991 13.672 28.2717C13.9774 28.1457 14.2685 27.9897 14.5428 27.8064C14.8183 27.6219 15.0717 27.4139 15.3057 27.18C15.5396 26.9448 15.7489 26.69 15.9321 26.4158C16.1154 26.1403 16.2713 25.8491 16.3974 25.5437C16.5235 25.2383 16.6196 24.9225 16.6833 24.5976C16.7483 24.2726 16.7808 23.9451 16.7808 23.6137C16.7808 23.2836 16.7483 22.9548 16.6833 22.6311C16.6196 22.3062 16.5235 21.9904 16.3974 21.685C16.2713 21.3796 16.1154 21.0884 15.9321 20.8129C15.7489 20.5374 15.5396 20.2826 15.3057 20.0487C15.0717 19.8148 14.8183 19.6055 14.5428 19.4223C14.2685 19.2377 13.9774 19.083 13.672 18.9557C13.3666 18.8296 13.052 18.7334 12.7284 18.6697C12.4035 18.6048 12.076 18.5723 11.7459 18.5723C11.4145 18.5723 11.0869 18.6048 10.7633 18.6697C10.4397 18.7334 10.1239 18.8296 9.81846 18.9557C9.51303 19.083 9.22321 19.2377 8.94768 19.4223C8.67344 19.6055 8.41871 19.8148 8.18477 20.0487C7.95213 20.2826 7.74288 20.5374 7.55962 20.8129C7.37507 21.0884 7.22041 21.3796 7.09434 21.685C6.96697 21.9904 6.8721 22.3062 6.80711 22.6311C6.74213 22.9548 6.71094 23.2836 6.71094 23.6137C6.71094 23.9451 6.74213 24.2726 6.80711 24.5976C6.8721 24.9225 6.96697 25.2383 7.09434 25.5437C7.22041 25.8491 7.37507 26.1403 7.55962 26.4158C7.74288 26.69 7.95213 26.9448 8.18477 27.18C8.41871 27.4139 8.67344 27.6219 8.94768 27.8064C9.22321 27.9897 9.51303 28.1457 9.81846 28.2717C10.1239 28.3991 10.4397 28.494 10.7633 28.559C11.0869 28.6239 11.4145 28.6564 11.7459 28.6564ZM11.7459 20.2527C11.9655 20.2527 12.1839 20.2748 12.4009 20.3177C12.6167 20.3606 12.8259 20.4243 13.0299 20.5088C13.234 20.5933 13.4276 20.6972 13.6109 20.8194C13.7942 20.9416 13.9631 21.0819 14.1191 21.2379C14.275 21.3939 14.4141 21.5628 14.5363 21.7474C14.6584 21.9306 14.7624 22.1243 14.8469 22.3283C14.9314 22.5324 14.9951 22.7416 15.0379 22.9587C15.0808 23.1744 15.1029 23.3941 15.1029 23.6137C15.1029 23.8346 15.0808 24.053 15.0379 24.27C14.9951 24.4858 14.9314 24.6963 14.8469 24.9004C14.7624 25.1044 14.6584 25.2981 14.5363 25.4813C14.4141 25.6646 14.275 25.8348 14.1191 25.9908C13.9631 26.1468 13.7942 26.2858 13.6109 26.4093C13.4276 26.5315 13.234 26.6354 13.0299 26.7199C12.8259 26.8044 12.6167 26.8681 12.4009 26.911C12.1839 26.9539 11.9655 26.976 11.7459 26.976C11.5249 26.976 11.3066 26.9539 11.0908 26.911C10.8751 26.8681 10.6645 26.8044 10.4605 26.7199C10.2577 26.6354 10.0641 26.5315 9.88084 26.4093C9.69759 26.2858 9.52733 26.1468 9.37267 25.9908C9.21671 25.8348 9.07764 25.6646 8.95417 25.4813C8.832 25.2981 8.72933 25.1044 8.64485 24.9004C8.56037 24.6963 8.49669 24.4858 8.4538 24.27C8.41091 24.053 8.38882 23.8346 8.38882 23.6137C8.38882 23.3941 8.41091 23.1744 8.4538 22.9587C8.49669 22.7416 8.56037 22.5324 8.64485 22.3283C8.72933 22.1243 8.832 21.9306 8.95417 21.7474C9.07764 21.5628 9.21671 21.3939 9.37267 21.2379C9.52733 21.0819 9.69759 20.9416 9.88084 20.8194C10.0641 20.6972 10.2577 20.5933 10.4605 20.5088C10.6645 20.4243 10.8751 20.3606 11.0908 20.3177C11.3066 20.2748 11.5249 20.2527 11.7459 20.2527Z" fill="#0C6460"/>
<path d="M41.9568 28.6564C42.2882 28.6564 42.6157 28.6239 42.9394 28.559C43.2643 28.494 43.5788 28.3991 43.8842 28.2717C44.1896 28.1457 44.4795 27.9897 44.755 27.8064C45.0292 27.6219 45.284 27.4139 45.5179 27.18C45.7519 26.9448 45.9598 26.69 46.1444 26.4158C46.3276 26.1403 46.4823 25.8491 46.6096 25.5437C46.7357 25.2383 46.8319 24.9225 46.8956 24.5976C46.9606 24.2726 46.993 23.9451 46.993 23.6137C46.993 23.2836 46.9606 22.9548 46.8956 22.6311C46.8319 22.3062 46.7357 21.9904 46.6096 21.685C46.4823 21.3796 46.3276 21.0884 46.1444 20.8129C45.9598 20.5374 45.7519 20.2826 45.5179 20.0487C45.284 19.8148 45.0292 19.6055 44.755 19.4223C44.4795 19.2377 44.1896 19.083 43.8842 18.9557C43.5788 18.8296 43.2643 18.7334 42.9394 18.6697C42.6157 18.6048 42.2882 18.5723 41.9568 18.5723C41.6267 18.5723 41.2992 18.6048 40.9756 18.6697C40.6506 18.7334 40.3361 18.8296 40.0307 18.9557C39.7253 19.083 39.4354 19.2377 39.1599 19.4223C38.8857 19.6055 38.6309 19.8148 38.397 20.0487C38.1631 20.2826 37.9551 20.5374 37.7706 20.8129C37.5873 21.0884 37.4326 21.3796 37.3053 21.685C37.1792 21.9904 37.083 22.3062 37.0194 22.6311C36.9544 22.9548 36.9219 23.2836 36.9219 23.6137C36.9219 23.9451 36.9544 24.2726 37.0194 24.5976C37.083 24.9225 37.1792 25.2383 37.3053 25.5437C37.4326 25.8491 37.5873 26.1403 37.7706 26.4158C37.9551 26.69 38.1631 26.9448 38.397 27.18C38.6309 27.4139 38.8857 27.6219 39.1599 27.8064C39.4354 27.9897 39.7253 28.1457 40.0307 28.2717C40.3361 28.3991 40.6506 28.494 40.9756 28.559C41.2992 28.6239 41.6267 28.6564 41.9568 28.6564ZM41.9568 20.2527C42.1778 20.2527 42.3961 20.2748 42.6118 20.3177C42.8289 20.3606 43.0381 20.4243 43.2422 20.5088C43.4462 20.5933 43.6386 20.6972 43.8218 20.8194C44.0051 20.9416 44.1754 21.0819 44.3313 21.2379C44.4873 21.3939 44.6263 21.5628 44.7485 21.7474C44.8707 21.9306 44.9747 22.1243 45.0591 22.3283C45.1436 22.5324 45.2073 22.7416 45.2502 22.9587C45.2931 23.1744 45.3139 23.3941 45.3139 23.6137C45.3139 23.8346 45.2931 24.053 45.2502 24.27C45.2073 24.4858 45.1436 24.6963 45.0591 24.9004C44.9747 25.1044 44.8707 25.2981 44.7485 25.4813C44.6263 25.6646 44.4873 25.8348 44.3313 25.9908C44.1754 26.1468 44.0051 26.2858 43.8218 26.4093C43.6386 26.5315 43.4462 26.6354 43.2422 26.7199C43.0381 26.8044 42.8289 26.8681 42.6118 26.911C42.3961 26.9539 42.1778 26.976 41.9568 26.976C41.7372 26.976 41.5188 26.9539 41.3031 26.911C41.086 26.8681 40.8768 26.8044 40.6727 26.7199C40.4687 26.6354 40.2763 26.5315 40.0931 26.4093C39.9098 26.2858 39.7396 26.1468 39.5836 25.9908C39.4276 25.8348 39.2886 25.6646 39.1664 25.4813C39.0442 25.2981 38.9403 25.1044 38.8558 24.9004C38.7713 24.6963 38.7076 24.4858 38.6647 24.27C38.6218 24.053 38.6011 23.8346 38.6011 23.6137C38.6011 23.3941 38.6218 23.1744 38.6647 22.9587C38.7076 22.7416 38.7713 22.5324 38.8558 22.3283C38.9403 22.1243 39.0442 21.9306 39.1664 21.7474C39.2886 21.5628 39.4276 21.3939 39.5836 21.2379C39.7396 21.0819 39.9098 20.9416 40.0931 20.8194C40.2763 20.6972 40.4687 20.5933 40.6727 20.5088C40.8768 20.4243 41.086 20.3606 41.3031 20.3177C41.5188 20.2748 41.7372 20.2527 41.9568 20.2527Z" fill="#0C6460"/>
<mask id="mask0_620_1230" style="mask-type:luminance" maskUnits="userSpaceOnUse" x="0" y="29" width="54" height="17">
<path d="M0 29.2578H53.7077V45.5609H0V29.2578Z" fill="white"/>
</mask>
<g mask="url(#mask0_620_1230)">
<path d="M52.8681 43.7821H50.6028C50.9862 43.2869 51.1824 42.7268 51.1902 42.1016V34.5388C51.1902 31.7575 48.5558 29.4961 45.3157 29.4961H38.6029C35.6994 29.4961 33.282 31.3195 32.8207 33.6979H29.3713C29.0984 33.6966 28.8774 33.8032 28.7085 34.0177C28.5408 34.2334 28.4901 34.4738 28.5577 34.7403L30.8153 43.7821H22.8937L25.176 34.7403C25.2436 34.4738 25.1929 34.2334 25.0252 34.0177C24.942 33.9124 24.8394 33.8318 24.7185 33.7759C24.5976 33.7187 24.4702 33.6927 24.3364 33.6979H20.8871C20.4257 31.3195 18.0096 29.4961 15.1061 29.4961H8.39199C5.1532 29.4961 2.51747 31.7575 2.51747 34.5388V42.1016C2.52527 42.7268 2.72152 43.2869 3.10492 43.7821H0.839589C0.727817 43.7821 0.621244 43.8029 0.51857 43.8458C0.415895 43.8887 0.324918 43.9485 0.245638 44.0277C0.167658 44.107 0.106573 44.198 0.063684 44.3007C0.0220944 44.4033 0 44.5112 0 44.6217C0 44.7335 0.0220944 44.84 0.063684 44.944C0.106573 45.0467 0.167658 45.1377 0.245638 45.2156C0.324918 45.2949 0.415895 45.356 0.51857 45.3989C0.621244 45.4405 0.727817 45.4626 0.839589 45.4626H52.8681C52.9799 45.4626 53.0865 45.4405 53.1891 45.3989C53.2931 45.356 53.3828 45.2949 53.4621 45.2156C53.5413 45.1377 53.6011 45.0467 53.644 44.944C53.6869 44.84 53.7077 44.7335 53.7077 44.6217C53.7077 44.5112 53.6869 44.4033 53.644 44.3007C53.6011 44.198 53.5413 44.107 53.4621 44.0277C53.3828 43.9485 53.2931 43.8887 53.1891 43.8458C53.0865 43.8029 52.9799 43.7821 52.8681 43.7821ZM14.2665 43.7821H6.71411C5.34556 43.7821 4.19665 43.0088 4.19665 42.1016V34.5388C4.19665 32.6816 6.07597 31.1766 8.39199 31.1766H15.1061C15.3167 31.1649 15.5285 31.1688 15.739 31.1883C15.9509 31.2091 16.1588 31.2455 16.3642 31.2974C16.5695 31.3507 16.7697 31.4183 16.9646 31.5015C17.1596 31.5847 17.348 31.6821 17.5274 31.7939C17.708 31.907 17.8783 32.0318 18.0382 32.1708C18.1993 32.3086 18.3488 32.4593 18.4866 32.6205C18.6243 32.7817 18.7491 32.9532 18.8596 33.1339C18.9713 33.3145 19.0675 33.503 19.1507 33.6979H12.5873C12.4925 33.6953 12.3989 33.7083 12.3066 33.7382C12.2156 33.7668 12.1325 33.811 12.0558 33.8695C11.9791 33.9267 11.9154 33.9956 11.8621 34.0761C11.8101 34.1567 11.7711 34.2438 11.749 34.3361L10.2544 40.4198H8.39199V37.8998C8.39199 37.788 8.3712 37.6814 8.32831 37.5775C8.28542 37.4748 8.22433 37.3838 8.14635 37.3058C8.06707 37.2266 7.9774 37.1655 7.87342 37.1226C7.77075 37.081 7.66417 37.0589 7.5524 37.0589C7.44193 37.0589 7.33406 37.081 7.23138 37.1226C7.12871 37.1655 7.03773 37.2266 6.95975 37.3058C6.88047 37.3838 6.82069 37.4748 6.7778 37.5775C6.73491 37.6814 6.71411 37.788 6.71411 37.8998V41.2607C6.71411 41.3725 6.73491 41.4791 6.7778 41.5818C6.82069 41.6857 6.88047 41.7767 6.95975 41.8547C7.03773 41.934 7.12871 41.9951 7.23138 42.0366C7.33406 42.0795 7.44193 42.1016 7.5524 42.1016H16.641C16.5539 42.3473 16.4331 42.5734 16.2758 42.7814C16.1185 42.9893 15.9327 43.1687 15.7208 43.3194C15.5077 43.4702 15.2777 43.5846 15.0294 43.6638C14.7812 43.7431 14.5264 43.7821 14.2665 43.7821ZM21.1639 43.7821H17.6236C17.8978 43.4195 18.107 43.0218 18.25 42.5903C18.3943 42.1588 18.4645 41.7156 18.4619 41.2607C18.4619 41.149 18.4411 41.0424 18.3982 40.9397C18.3553 40.8357 18.2955 40.7448 18.2162 40.6668C18.1382 40.5875 18.0473 40.5277 17.9446 40.4848C17.8419 40.4419 17.734 40.4198 17.6236 40.4198H11.9843L13.2424 35.3784H23.2629L21.1639 43.7821ZM32.5438 43.7821L30.4461 35.3784H40.4653L41.7247 40.4198H36.0854C35.9737 40.4198 35.8671 40.4419 35.7644 40.4848C35.6604 40.5277 35.5708 40.5875 35.4915 40.6668C35.4135 40.7448 35.3524 40.8357 35.3095 40.9397C35.2666 41.0424 35.2458 41.149 35.2458 41.2607C35.2432 41.7156 35.3134 42.1588 35.4577 42.5903C35.602 43.0218 35.8099 43.4195 36.0854 43.7821H32.5438ZM49.5124 42.1016C49.5124 43.0088 48.3621 43.7821 46.9949 43.7821H39.4412C39.1813 43.7821 38.9265 43.7431 38.6783 43.6638C38.43 43.5846 38.2 43.4702 37.9869 43.3194C37.775 43.1687 37.5905 42.9893 37.4332 42.7814C37.2759 42.5734 37.1538 42.3473 37.0667 42.1016H46.1553C46.2671 42.1016 46.3736 42.0795 46.4763 42.0366C46.579 41.9951 46.67 41.934 46.748 41.8547C46.8272 41.7767 46.8883 41.6857 46.9299 41.5818C46.9728 41.4791 46.9949 41.3725 46.9949 41.2607V37.8998C46.9949 37.788 46.9728 37.6814 46.9299 37.5775C46.8883 37.4748 46.8272 37.3838 46.748 37.3058C46.67 37.2266 46.579 37.1655 46.4763 37.1226C46.3736 37.081 46.2671 37.0589 46.1553 37.0589C46.0435 37.0589 45.937 37.081 45.8343 37.1226C45.7316 37.1655 45.6406 37.2266 45.5613 37.3058C45.4834 37.3838 45.4223 37.4748 45.3794 37.5775C45.3378 37.6814 45.3157 37.788 45.3157 37.8998V40.4198H43.4533L41.9587 34.3361C41.9366 34.2438 41.8989 34.1567 41.8456 34.0761C41.7936 33.9969 41.7286 33.9267 41.6519 33.8695C41.5765 33.811 41.4921 33.7668 41.4011 33.7382C41.3101 33.7083 41.2165 33.6953 41.1204 33.6979H34.5583C34.6402 33.503 34.7364 33.3145 34.8481 33.1339C34.9599 32.9532 35.0847 32.7817 35.2211 32.6205C35.3589 32.4593 35.5084 32.3086 35.6695 32.1708C35.8294 32.0318 36.0009 31.907 36.1803 31.7939C36.361 31.6821 36.5481 31.5847 36.7431 31.5015C36.938 31.4183 37.1382 31.3507 37.3435 31.2974C37.5489 31.2455 37.7568 31.2091 37.9687 31.1883C38.1792 31.1688 38.3911 31.1649 38.6029 31.1766H45.3157C47.6317 31.1766 49.5124 32.6816 49.5124 34.5388V42.1016Z" fill="#0C6460"/>
</g>
<path d="M38.1909 9.3286C38.1909 9.08036 38.1792 8.83342 38.1546 8.58778C38.1312 8.34085 38.0948 8.09651 38.0467 7.85347C37.9986 7.61043 37.9375 7.36999 37.866 7.13345C37.7945 6.89561 37.7114 6.66297 37.6165 6.43423C37.5216 6.20548 37.4163 5.98194 37.2994 5.76359C37.1824 5.54525 37.0563 5.3334 36.9186 5.12675C36.7808 4.92141 36.6339 4.72256 36.4767 4.5302C36.3207 4.33915 36.1544 4.1559 35.9789 3.98044C35.8047 3.80629 35.6215 3.63993 35.4304 3.48267C35.2394 3.32541 35.0405 3.17854 34.8352 3.04078C34.6285 2.90301 34.4167 2.77565 34.1996 2.65867C33.9813 2.5417 33.7578 2.43643 33.529 2.34155C33.3003 2.24668 33.0676 2.1635 32.8311 2.09202C32.5946 2.01923 32.3554 1.95945 32.1124 1.91136C31.8693 1.86327 31.625 1.82688 31.3794 1.80219C31.1324 1.7775 30.8868 1.7658 30.6385 1.7658C29.825 1.7658 29.0334 1.89707 28.264 2.1609C28.0717 1.97245 27.8715 1.79569 27.661 1.62803C27.4504 1.46168 27.2308 1.30701 27.0034 1.16405C26.7772 1.02109 26.5433 0.889819 26.3015 0.771549C26.0611 0.653279 25.8142 0.548005 25.562 0.455728C25.3099 0.364751 25.0538 0.285471 24.7926 0.221787C24.5327 0.156803 24.2688 0.106116 24.0037 0.0697254C23.7373 0.0333343 23.4695 0.0112399 23.2018 0.00344202C22.9341 -0.00435618 22.665 0.000842516 22.3973 0.0216373C22.1309 0.0424321 21.8645 0.0775233 21.6006 0.126911C21.3368 0.174999 21.0755 0.238683 20.8195 0.315364C20.5622 0.392044 20.3087 0.481722 20.0618 0.585696C19.8136 0.689669 19.5731 0.80664 19.3379 0.936607C19.1026 1.06527 18.8752 1.20694 18.6543 1.3616C18.4346 1.51496 18.2228 1.68002 18.0213 1.85678C17.8186 2.03353 17.6262 2.21938 17.443 2.41694C17.261 2.61319 17.0895 2.81983 16.9283 3.03558C16.7671 3.25003 16.619 3.47357 16.4812 3.70491C16.3447 3.93625 16.2213 4.17409 16.1095 4.41843C15.9977 4.66277 15.899 4.91231 15.8145 5.16704C15.7287 5.42178 15.6585 5.68041 15.6 5.94295C15.5428 6.20548 15.5 6.47062 15.4701 6.73835C15.4415 7.00478 15.4259 7.27251 15.4259 7.54155C15.4246 7.81058 15.4376 8.07831 15.4662 8.34604C15.4935 8.61378 15.535 8.87891 15.5922 9.14144C15.6481 9.40398 15.717 9.66261 15.8015 9.91865C15.8847 10.1734 15.9821 10.4242 16.0913 10.6686C16.2018 10.9142 16.3252 11.152 16.4604 11.3847C16.5969 11.616 16.7437 11.8409 16.9036 12.0566C17.0635 12.2724 17.2337 12.4803 17.4157 12.6779C17.5963 12.8754 17.7887 13.0639 17.9901 13.2406C18.1916 13.4187 18.4021 13.585 18.6205 13.7397C18.8401 13.8944 19.0676 14.0373 19.3015 14.1686L18.9324 16.7731C18.9038 16.9369 18.9233 17.0954 18.9883 17.2475C19.0533 17.3996 19.1559 17.5217 19.2937 17.614C19.4354 17.7102 19.5913 17.757 19.7629 17.757C19.9123 17.7583 20.0527 17.7219 20.1827 17.6478L24.6639 15.0758C24.9486 15.0147 25.228 14.9367 25.5035 14.8405C26.0039 15.3201 26.5602 15.7217 27.171 16.0466C27.7832 16.3715 28.4265 16.6094 29.1036 16.7575L33.568 19.3036C33.698 19.3764 33.837 19.4128 33.9865 19.4128C34.1581 19.4128 34.3153 19.3647 34.457 19.2698C34.5948 19.1775 34.6961 19.0554 34.7611 18.9033C34.8274 18.7499 34.8456 18.5927 34.8183 18.4289L34.4492 15.8244C35.0158 15.4929 35.5305 15.0939 35.9932 14.6274C36.4572 14.1608 36.8523 13.6435 37.1811 13.0743C37.5086 12.5037 37.7582 11.902 37.9297 11.2677C38.1013 10.6322 38.1883 9.98623 38.1909 9.3286ZM24.1766 13.4291C24.0869 13.4486 23.9998 13.4798 23.9166 13.5213L20.8039 15.311L20.9794 13.8242C20.9976 13.6487 20.9625 13.4837 20.8767 13.3303C20.7909 13.1756 20.6688 13.0613 20.5102 12.9833C20.3022 12.8832 20.1008 12.7714 19.9058 12.648C19.7109 12.5245 19.5237 12.3893 19.3457 12.2438C19.1663 12.0969 18.9974 11.9422 18.8362 11.7759C18.6764 11.6095 18.5256 11.4354 18.3852 11.2508C18.2462 11.0676 18.1175 10.8765 17.9992 10.6777C17.8823 10.4788 17.777 10.2735 17.6834 10.0629C17.5898 9.85107 17.5092 9.63532 17.4417 9.41438C17.3728 9.19343 17.3182 8.96989 17.2766 8.74244C17.235 8.515 17.2077 8.28626 17.1921 8.05622C17.1778 7.82488 17.1765 7.59483 17.1895 7.36479C17.2025 7.13345 17.2285 6.90471 17.2675 6.67726C17.3065 6.44982 17.3598 6.22498 17.4248 6.00273C17.4911 5.78179 17.5703 5.56474 17.6613 5.3529C17.7523 5.14105 17.8563 4.9344 17.9719 4.73555C18.0876 4.5354 18.2137 4.34305 18.3527 4.1572C18.4905 3.97264 18.6387 3.79719 18.7985 3.62953C18.9571 3.46187 19.126 3.30461 19.3028 3.15645C19.4809 3.00959 19.6654 2.87312 19.8591 2.74705C20.0527 2.62098 20.2529 2.50791 20.4608 2.40524C20.6675 2.30386 20.8793 2.21419 21.0976 2.13621C21.3147 2.05953 21.5356 1.99584 21.7605 1.94515C21.9853 1.89447 22.2128 1.85678 22.4428 1.83208C22.6715 1.80869 22.9016 1.79829 23.1329 1.80089C23.363 1.80349 23.593 1.82038 23.8218 1.85028C24.0505 1.88147 24.2766 1.92436 24.5002 1.98154C24.7237 2.03743 24.9434 2.10761 25.1591 2.19079C25.3736 2.27267 25.5841 2.36885 25.7882 2.47542C25.9922 2.58329 26.1898 2.70286 26.3795 2.83283C26.5706 2.9641 26.7512 3.10576 26.9254 3.25782C27.0995 3.40989 27.2633 3.57104 27.418 3.7426C27.5713 3.91416 27.7156 4.09481 27.8494 4.28327C27.982 4.47172 28.1042 4.66797 28.2147 4.87072C28.3251 5.07347 28.4226 5.28141 28.5084 5.49586C28.5942 5.71031 28.6669 5.92995 28.7267 6.1522C28.7878 6.37574 28.8333 6.60188 28.8671 6.83063C28.9009 7.05937 28.9204 7.28811 28.9269 7.51945C28.9334 7.75079 28.9269 7.98084 28.9061 8.21088C28.8853 8.44092 28.8502 8.66966 28.8034 8.89451C28.7553 9.12065 28.6955 9.34419 28.6215 9.56254C28.5474 9.78088 28.4616 9.99533 28.3628 10.2033C28.264 10.4125 28.1523 10.6153 28.0301 10.8102C27.9079 11.0065 27.7741 11.1936 27.6285 11.3743C27.4842 11.5536 27.3296 11.7239 27.1645 11.8864C26.9995 12.0475 26.8253 12.1983 26.6433 12.3399C26.4601 12.4816 26.2703 12.6103 26.0728 12.7298C25.8739 12.8481 25.6699 12.9547 25.4593 13.0496C25.2488 13.1444 25.0344 13.2263 24.8134 13.2952C24.5938 13.3641 24.3702 13.42 24.1441 13.4629L24.1766 13.4291ZM33.182 14.6313C33.0234 14.7079 32.9 14.8236 32.8142 14.977C32.7284 15.1303 32.6946 15.2954 32.7115 15.4709L32.9208 16.959L29.8081 15.2109C29.7249 15.168 29.6391 15.1381 29.5481 15.1186C28.6604 14.9445 27.8585 14.5832 27.1398 14.0347C27.3491 13.9008 27.5505 13.7579 27.7455 13.6045C27.9404 13.4512 28.1276 13.2887 28.3069 13.1171C28.485 12.9456 28.6552 12.7649 28.8164 12.5765C28.9776 12.388 29.1296 12.1918 29.2713 11.989C29.4143 11.785 29.5455 11.5757 29.6664 11.3587C29.7886 11.1429 29.899 10.9207 29.9978 10.6933C30.0979 10.4658 30.1863 10.2345 30.2629 9.99923C30.3396 9.76269 30.4046 9.52355 30.4579 9.28181C30.5112 9.03877 30.5528 8.79443 30.5814 8.54749C30.6113 8.30186 30.6281 8.05492 30.6333 7.80668C30.6372 7.55844 30.6307 7.3102 30.6113 7.06327C30.5918 6.81503 30.5606 6.56939 30.5164 6.32505C30.4722 6.08071 30.4176 5.83897 30.35 5.59983C30.2824 5.362 30.2032 5.12675 30.1135 4.89541C30.0225 4.66407 29.9211 4.43793 29.8081 4.21698C29.6963 3.99604 29.5728 3.78159 29.4389 3.57234C29.834 3.48787 30.2343 3.44628 30.6385 3.44628C30.9687 3.44758 31.2962 3.47747 31.6211 3.53335C31.946 3.59054 32.2644 3.67372 32.5751 3.78419C32.8857 3.89466 33.1859 4.02983 33.4744 4.19099C33.7617 4.35215 34.0346 4.5354 34.2919 4.74205C34.5493 4.95 34.7871 5.17614 35.0067 5.42308C35.2251 5.67002 35.4226 5.93385 35.5968 6.21458C35.771 6.49531 35.9217 6.78774 36.0465 7.09316C36.1726 7.39858 36.2713 7.7131 36.3441 8.03542C36.4169 8.35774 36.4611 8.68396 36.4793 9.01278C36.4962 9.34289 36.4871 9.67171 36.4494 10.0005C36.4117 10.3293 36.3467 10.6517 36.2544 10.9688C36.1622 11.2859 36.0452 11.5939 35.9009 11.8903C35.7567 12.1879 35.5903 12.4712 35.3979 12.7402C35.2069 13.0093 34.9951 13.2614 34.7611 13.4941C34.5272 13.7267 34.2763 13.9398 34.006 14.1296C33.737 14.3206 33.4536 14.4883 33.156 14.6313H33.182Z" fill="#0C6460"/>
<path d="M21.8261 7.6474C21.8261 7.81376 21.7949 7.97492 21.7312 8.12958C21.6675 8.28424 21.5765 8.42071 21.4583 8.53898C21.34 8.65725 21.2035 8.74822 21.0502 8.81191C20.8955 8.87559 20.7343 8.90808 20.568 8.90808C20.4016 8.90808 20.2405 8.87559 20.0858 8.81191C19.9324 8.74822 19.796 8.65725 19.6777 8.53898C19.5594 8.42071 19.4685 8.28424 19.4048 8.12958C19.3411 7.97492 19.3086 7.81376 19.3086 7.6474C19.3086 7.47974 19.3411 7.31988 19.4048 7.16522C19.4685 7.01056 19.5594 6.8741 19.6777 6.75583C19.796 6.63756 19.9324 6.54658 20.0858 6.48289C20.2405 6.41921 20.4016 6.38672 20.568 6.38672C20.7343 6.38672 20.8955 6.41921 21.0502 6.48289C21.2035 6.54658 21.34 6.63756 21.4583 6.75583C21.5765 6.8741 21.6675 7.01056 21.7312 7.16522C21.7949 7.31988 21.8261 7.47974 21.8261 7.6474Z" fill="#0C6460"/>
<path d="M24.3469 7.6474C24.3469 7.81376 24.3144 7.97492 24.2507 8.12958C24.187 8.28424 24.0961 8.42071 23.9778 8.53898C23.8595 8.65725 23.723 8.74822 23.5697 8.81191C23.415 8.87559 23.2539 8.90808 23.0875 8.90808C22.9212 8.90808 22.76 8.87559 22.6053 8.81191C22.452 8.74822 22.3155 8.65725 22.1972 8.53898C22.079 8.42071 21.988 8.28424 21.9243 8.12958C21.8606 7.97492 21.8281 7.81376 21.8281 7.6474C21.8281 7.47974 21.8606 7.31988 21.9243 7.16522C21.988 7.01056 22.079 6.8741 22.1972 6.75583C22.3155 6.63756 22.452 6.54658 22.6053 6.48289C22.76 6.41921 22.9212 6.38672 23.0875 6.38672C23.2539 6.38672 23.415 6.41921 23.5697 6.48289C23.723 6.54658 23.8595 6.63756 23.9778 6.75583C24.0961 6.8741 24.187 7.01056 24.2507 7.16522C24.3144 7.31988 24.3469 7.47974 24.3469 7.6474Z" fill="#0C6460"/>
<path d="M26.8612 7.6474C26.8612 7.81376 26.8287 7.97492 26.765 8.12958C26.7014 8.28424 26.6104 8.42071 26.4921 8.53898C26.3738 8.65725 26.2374 8.74822 26.084 8.81191C25.9294 8.87559 25.7695 8.90808 25.6018 8.90808C25.4355 8.90808 25.2743 8.87559 25.1197 8.81191C24.9663 8.74822 24.8298 8.65725 24.7116 8.53898C24.5933 8.42071 24.5023 8.28424 24.4386 8.12958C24.3749 7.97492 24.3438 7.81376 24.3438 7.6474C24.3438 7.47974 24.3749 7.31988 24.4386 7.16522C24.5023 7.01056 24.5933 6.8741 24.7116 6.75583C24.8298 6.63756 24.9663 6.54658 25.1197 6.48289C25.2743 6.41921 25.4355 6.38672 25.6018 6.38672C25.7695 6.38672 25.9294 6.41921 26.084 6.48289C26.2374 6.54658 26.3738 6.63756 26.4921 6.75583C26.6104 6.8741 26.7014 7.01056 26.765 7.16522C26.8287 7.31988 26.8612 7.47974 26.8612 7.6474Z" fill="#0C6460"/>
</svg>
